<svg width="95" height="95" viewBox="0 0 95 95" fill="none" xmlns="http://www.w3.org/2000/svg">
<g clip-path="url(#clip0_428_2)">
<path d="M94.0255 45.833L69.9065 21.714C69.1565 20.964 67.8295 20.964 67.0795 21.714L61.8505 26.943C61.0695 27.724 61.0695 28.99 61.8505 29.771L79.3275 47.246L61.8515 64.724C61.0705 65.505 61.0705 66.771 61.8515 67.552L67.0805 72.781C67.4555 73.156 67.9645 73.368 68.4945 73.368C69.0235 73.368 69.5335 73.156 69.9085 72.781L94.0255 48.663C94.8065 47.881 94.8065 46.614 94.0255 45.833Z" fill="black"/>
<path d="M32.759 64.724L15.285 47.248L32.762 29.773C33.137 29.398 33.348 28.89 33.348 28.359C33.348 27.829 33.138 27.32 32.762 26.945L27.533 21.716C27.158 21.341 26.649 21.13 26.119 21.13C25.589 21.13 25.08 21.341 24.705 21.716L0.584998 45.833C-0.196002 46.614 -0.196002 47.88 0.584998 48.662L24.704 72.78C25.079 73.155 25.588 73.367 26.118 73.367C26.648 73.367 27.157 73.155 27.532 72.78L32.761 67.551C33.542 66.771 33.542 65.505 32.759 64.724Z" fill="black"/>
<path d="M61.0217 13.6C60.7677 13.134 60.3398 12.788 59.8318 12.638L55.5927 11.387C54.5347 11.073 53.4208 11.68 53.1088 12.739L33.4297 79.382C33.2797 79.891 33.3377 80.438 33.5907 80.903C33.8437 81.37 34.2728 81.715 34.7808 81.866L39.0197 83.117C39.2087 83.173 39.3998 83.2 39.5868 83.2C40.4498 83.2 41.2468 82.636 41.5038 81.765L61.1827 15.121C61.3327 14.612 61.2757 14.065 61.0217 13.6Z" fill="black"/>
</g>
<defs>
<clipPath id="clip0_428_2">
<rect width="94.504" height="94.504" fill="white"/>
</clipPath>
</defs>
</svg>
