<svg width="47" height="47" viewBox="0 0 47 47" fill="none" xmlns="http://www.w3.org/2000/svg">
<g id="django-svgrepo-com 1">
<g id="Group">
<path id="Vector" d="M35.5154 19.0867C36.6172 19.0867 37.6353 19.2034 38.8704 19.4537L37.9903 21.3078C37.3059 21.1742 37.9355 21.2899 37.4184 21.2398V21.507L37.4516 22.5917L37.4682 23.9938C37.4849 24.3441 37.4849 24.6947 37.5017 25.0452V25.7463C37.5017 27.9495 37.3181 28.9842 36.7674 29.8354C35.9662 31.0873 34.5808 31.7048 32.6114 31.7048C31.6099 31.7048 30.7422 31.5546 29.8407 31.204V28.834H29.8408C30.7423 29.3013 31.6435 29.5182 32.5948 29.5182C34.2804 29.5182 34.9982 28.834 34.9982 27.1982V27.1482C34.4975 27.3984 33.9967 27.4987 33.3292 27.4987C31.076 27.4987 29.6403 26.0132 29.6403 23.6599C29.6403 20.7388 31.7602 19.0867 35.5154 19.0867ZM12.2007 19.2536V25.212C12.2007 27.265 12.0505 28.2497 11.5999 29.1009C11.1825 29.9189 10.6317 30.4362 9.4968 31.0038L7.11 29.8688C8.24499 29.3347 8.79574 28.8675 9.14621 28.1495C9.51349 27.4152 9.63042 26.5639 9.63042 24.3275V19.2536H12.2007ZM42.8607 19.0366C45.431 19.0366 47 20.6557 47 23.276C47 25.9633 45.3644 27.6491 42.7606 27.6491C40.1901 27.6491 38.6045 26.03 38.6045 23.4263C38.6046 20.7222 40.2404 19.0366 42.8607 19.0366ZM17.1582 19.0701C18.4768 19.0701 19.3446 19.4205 19.7286 20.1048C19.9454 20.4887 20.0122 20.9894 20.0122 22.0577V27.2817C18.8604 27.4486 17.4084 27.5655 16.3403 27.5655C14.1873 27.5655 13.2191 26.8142 13.2191 25.1452C13.2191 23.3426 14.5043 22.5081 17.6589 22.241V21.6735C17.6589 21.2062 17.4252 21.0394 16.7742 21.0394C15.8229 21.0394 14.7547 21.3065 13.7531 21.8239V19.8377H13.7532C14.8883 19.3037 15.9731 19.0701 17.1582 19.0701ZM8.11169 15.2842V27.1817C6.79312 27.432 5.82503 27.5321 4.77359 27.5321C1.63567 27.5321 0 26.1135 0 23.3929C0 20.7724 1.73591 19.0701 4.42301 19.0701C4.84024 19.0701 5.15734 19.1034 5.54131 19.2035V15.2842H8.11169ZM25.3032 19.0701C26.6217 19.0701 27.5731 19.3704 28.1408 19.9546C28.6748 20.5053 28.8416 21.1061 28.8416 22.3915V27.4319H26.2712V22.4916C26.2712 21.507 25.9375 21.1396 25.0195 21.1396C24.6691 21.1396 24.352 21.1729 23.8344 21.3232V27.4319H21.2641V19.6541C22.7828 19.2536 24.0347 19.0701 25.3032 19.0701ZM17.7757 23.9269C16.0732 24.0938 15.5224 24.3609 15.5224 25.0285C15.5224 25.5292 15.8396 25.7629 16.5406 25.7629C16.9245 25.7629 17.2749 25.7296 17.7757 25.6461V23.9269ZM42.8274 21.1062C41.8092 21.1062 41.2248 21.9242 41.2248 23.3427C41.2249 24.7615 41.8092 25.5793 42.8104 25.5793C43.7953 25.5793 44.3796 24.7614 44.3796 23.3427C44.3796 21.9408 43.812 21.1062 42.8274 21.1062ZM4.67346 21.1396C3.37158 21.1396 2.62045 21.9408 2.62045 23.3427C2.62045 24.7114 3.3382 25.4624 4.65677 25.4624C4.94038 25.4624 5.17414 25.4458 5.54131 25.3958V21.273C5.2409 21.1729 4.99056 21.1396 4.67346 21.1396ZM33.1957 21.5233C32.5783 21.8739 32.261 22.5082 32.261 23.4094C32.261 24.6947 32.8954 25.4291 34.0303 25.4291C34.3808 25.4291 34.6646 25.3622 34.9983 25.2622V24.3776C34.9983 24.0772 34.9817 23.7432 34.9817 23.3929L34.9651 22.2079L34.9483 21.3566V21.1563H34.6812C34.1806 21.1396 33.5965 21.273 33.1957 21.5233ZM12.2007 15.2979V17.935H9.63042V15.2979H12.2007Z" fill="#092E20"/>
</g>
</g>
</svg>
