<svg width="76" height="67" viewBox="0 0 76 67" fill="none" xmlns="http://www.w3.org/2000/svg">
<g id="html5-svgrepo-com 1">
<path id="Vector" d="M10.5391 60.1953L4.45312 0H71.3984L65.3125 60.1953L37.8516 67" fill="#E34F26"/>
<path id="Vector_2" d="M38 61.7656L60.1172 56.4004L65.3125 4.8418H38" fill="#EF652A"/>
<path id="Vector_3" d="M38 27.2188H26.8672L26.125 19.6289H38V12.3008H16.9219L19.1484 34.6777H38V27.2188ZM37.8516 46.4551L28.5 44.2305L27.9062 38.3418H19.5938L20.6328 49.9883L37.8516 54.1758V46.4551Z" fill="#EBEBEB"/>
<path id="Vector_4" d="M37.8516 27.2188V34.6777H48.2422L47.2031 44.2305L37.8516 46.4551V54.1758L55.0703 49.9883L57.4453 27.2188H37.8516ZM37.8516 12.3008V19.6289H58.1875L58.9297 12.3008H37.8516Z" fill="white"/>
</g>
</svg>
