<svg width="47" height="47" viewBox="0 0 47 47" fill="none" xmlns="http://www.w3.org/2000/svg">
<g id="javascript-svgrepo-com 1">
<path id="Vector" d="M46.9862 0H0.0137695C0.00616483 0 0 0.00616483 0 0.0137695V46.9862C0 46.9938 0.00616483 47 0.0137695 47H46.9862C46.9938 47 47 46.9938 47 46.9862V0.0137695C47 0.00616483 46.9938 0 46.9862 0Z" fill="#F7DF1E"/>
<path id="Vector_2" d="M29.7422 33.9648C30.6602 35.5254 31.9453 36.627 34.0566 36.627C35.8926 36.627 37.0859 35.709 37.0859 34.4238C37.0859 32.9551 35.8926 32.4043 33.873 31.4863L32.7715 31.0273C29.5586 29.6504 27.4473 27.998 27.4473 24.418C27.4473 21.1133 29.9258 18.543 33.873 18.543C36.7188 18.543 38.7383 19.5527 40.1152 22.123L36.7188 24.3262C35.9844 22.9492 35.1582 22.3984 33.873 22.3984C32.5879 22.3984 31.7617 23.2246 31.7617 24.3262C31.7617 25.6113 32.5879 26.1621 34.5156 26.9883L35.6172 27.4473C39.3809 29.0996 41.4922 30.6602 41.4922 34.4238C41.4922 38.3711 38.3711 40.5742 34.1484 40.5742C30.0176 40.5742 27.3555 38.6465 26.0703 36.0762L29.7422 33.9648ZM14.1367 34.332C14.8711 35.5254 15.4219 36.627 16.9824 36.627C18.4512 36.627 19.3691 36.0762 19.3691 33.873V18.6348H23.7754V33.6895C23.7754 38.2793 21.1133 40.2988 17.166 40.2988C13.5859 40.2988 11.5664 38.4629 10.5566 36.2598L14.1367 34.332Z" fill="black"/>
</g>
</svg>
