<svg width="47" height="47" viewBox="0 0 47 47" fill="none" xmlns="http://www.w3.org/2000/svg">
<g id="python-svgrepo-com 1">
<g id="Group">
<path id="Vector" d="M23.301 0.105072C11.3982 0.105073 12.1415 5.26685 12.1415 5.26685L12.1547 10.6144H23.5133V12.22H7.64315C7.64315 12.22 0.0265503 11.3562 0.0265503 23.3662C0.0265494 35.3763 6.67449 34.9504 6.67449 34.9504H10.642V29.3772C10.642 29.3772 10.4282 22.7293 17.1838 22.7293H28.4495C28.4495 22.7293 34.7789 22.8316 34.7789 16.6121V6.32839C34.7789 6.32839 35.7399 0.105072 23.301 0.105072ZM17.0378 3.70106C18.1679 3.70106 19.0813 4.61445 19.0813 5.74454C19.0813 6.87463 18.1679 7.78802 17.0378 7.78802C15.9077 7.78802 14.9944 6.87463 14.9944 5.74454C14.9944 4.61445 15.9077 3.70106 17.0378 3.70106Z" fill="url(#paint0_linear_435_10)"/>
<path id="Vector_2" d="M23.639 46.7478C35.5418 46.7478 34.7985 41.586 34.7985 41.586L34.7852 36.2385H23.4267V34.6329H39.2968C39.2968 34.6329 46.9134 35.4967 46.9134 23.4866C46.9134 11.4766 40.2655 11.9025 40.2655 11.9025H36.2979V17.4756C36.2979 17.4756 36.5118 24.1236 29.7562 24.1236H18.4905C18.4905 24.1236 12.161 24.0212 12.161 30.2407V40.5245C12.161 40.5245 11.2 46.7478 23.639 46.7478ZM29.9021 43.1518C28.772 43.1518 27.8586 42.2384 27.8586 41.1083C27.8586 39.9782 28.772 39.0648 29.9021 39.0648C31.0322 39.0648 31.9456 39.9782 31.9456 41.1083C31.9456 42.2384 31.0322 43.1518 29.9021 43.1518Z" fill="url(#paint1_linear_435_10)"/>
</g>
</g>
<defs>
<linearGradient id="paint0_linear_435_10" x1="4.53247" y1="4.30046" x2="27.7679" y2="27.3041" gradientUnits="userSpaceOnUse">
<stop stop-color="#387EB8"/>
<stop offset="1" stop-color="#366994"/>
</linearGradient>
<linearGradient id="paint1_linear_435_10" x1="18.7944" y1="19.0719" x2="43.7467" y2="42.6601" gradientUnits="userSpaceOnUse">
<stop stop-color="#FFE052"/>
<stop offset="1" stop-color="#FFC331"/>
</linearGradient>
</defs>
</svg>
