<svg width="47" height="47" viewBox="0 0 47 47" fill="none" xmlns="http://www.w3.org/2000/svg">
<g id="security-svgrepo-com 1" clip-path="url(#clip0_435_17)">
<g id="Group">
<g id="Group_2">
<path id="Vector" d="M37.2422 27.1071C36.3227 27.4846 34.261 28.1815 33.3512 28.6848C33.7384 28.9365 34.0965 29.2462 34.3965 29.614C34.4546 29.5753 34.5127 29.5269 34.5805 29.4882L35.2483 29.1107C36.2259 28.5493 38.3166 27.7847 39.391 27.291C38.7038 26.8264 37.9875 26.8071 37.2422 27.1071Z" fill="#27A6EE"/>
<path id="Vector_2" d="M8.2433 30.3497C7.84645 29.6624 7.09148 29.2172 6.23971 29.2753L2.24221 29.556C0.916157 29.6528 -0.0904783 30.7949 0.00631356 32.1306L0.64514 41.3259C0.741932 42.6519 1.88408 43.6585 3.2198 43.5618L7.21731 43.2811C8.0594 43.223 8.74662 42.6809 9.04667 41.955L26.5854 42.739C28.5406 42.952 30.3699 42.71 32.0928 41.7711L32.5961 41.5001L45.8566 33.447C46.5051 33.0502 46.9697 32.3629 46.9988 31.608C47.0278 30.6884 46.5148 29.6624 45.2468 29.5657C44.3467 29.4979 42.4883 30.5433 41.9849 30.8046C40.1653 31.7531 37.6583 33.2341 36.0032 34.4149C35.8871 34.4924 35.7322 34.5988 35.616 34.6763C34.8707 35.1699 34.0867 35.5087 33.2156 35.7023C28.4147 36.767 21.407 36.8831 21.407 36.8831L21.0005 36.9025C20.6907 36.9218 20.4197 36.6992 20.3713 36.3895C20.3229 36.0507 20.5649 35.7313 20.9037 35.7023L31.3185 34.6763C32.4606 34.5504 33.3801 33.4276 33.2543 32.179C33.1285 30.9304 32.0154 30.0109 30.8732 30.1464L21.6103 30.0303C20.9811 30.0206 19.9745 29.856 19.3647 29.6721C13.4023 27.8621 10.034 29.5657 8.2433 30.3497ZM4.67168 41.3936C3.9167 41.3936 3.30692 40.7838 3.30692 40.0289C3.30692 39.2739 3.9167 38.6641 4.67168 38.6641C5.42666 38.6641 6.03645 39.2739 6.03645 40.0289C6.03645 40.7838 5.42666 41.3936 4.67168 41.3936Z" fill="#E5C20A"/>
<path id="Vector_3" d="M35.8 32.4404C37.1551 31.4531 39.9233 29.8947 41.4914 29.0817C41.9657 28.83 42.4593 28.5881 43.0013 28.3945C42.3141 27.9202 41.5882 27.9008 40.8332 28.2106C39.3426 28.8204 36.5937 30.1948 35.1999 30.9885C35.1902 31.0079 35.1805 31.0272 35.1805 31.0466C35.2773 31.3466 35.3548 31.6564 35.3838 31.9855C35.4128 32.2468 35.4032 32.4984 35.3935 32.7501C35.5193 32.6436 35.6645 32.5468 35.8 32.4404Z" fill="#27A6EE"/>
<path id="Vector_4" d="M35.771 8.49407C35.771 7.55519 35.1999 6.91636 34.2224 6.78085L33.8061 6.73246C33.2544 6.6647 32.7221 6.60663 32.2284 6.49048C30.3991 6.08395 28.6375 5.26122 26.6823 3.88678C26.3725 3.67383 26.0338 3.43185 25.5304 3.43185C25.0271 3.43185 24.6884 3.67383 24.3883 3.88678C21.7652 5.69678 19.4035 6.60663 16.9837 6.75181C16.3449 6.78085 15.2802 7.05187 15.2802 8.56182V11.001C15.2802 12.6464 15.2705 14.2919 15.2802 15.9277C15.2802 16.5859 15.3576 17.2731 15.5318 18.0377C15.8996 19.6832 16.7708 21.1738 18.1839 22.6257C19.9262 24.3873 22.1137 25.7521 24.9303 26.8071C25.1142 26.8652 25.3175 26.9039 25.5208 26.9039C25.8015 26.9039 26.0725 26.8458 26.2661 26.749L26.9823 26.4393C27.5727 26.1876 28.1535 25.9263 28.7536 25.6262C30.9701 24.4647 32.664 23.0612 33.932 21.3577C35.0548 19.8768 35.6645 18.2991 35.7323 16.6536C35.7904 15.5502 35.7807 14.4468 35.7807 13.3724L35.771 8.49407ZM33.2641 16.5375C33.2157 17.6893 32.7898 18.7734 31.9477 19.8768C30.9024 21.29 29.4795 22.4611 27.6211 23.4291C27.0791 23.7001 26.5371 23.9324 25.9854 24.1743C25.8305 24.2421 25.6756 24.3099 25.5111 24.3776V15.3953H17.729C17.7193 13.9338 17.7193 12.4722 17.729 11.0107V9.17161C20.323 8.90059 22.8203 7.923 25.5111 6.10331V15.3856H33.2835C33.2835 15.7728 33.2738 16.16 33.2641 16.5375Z" fill="#E6C20A"/>
</g>
</g>
</g>
<defs>
<clipPath id="clip0_435_17">
<rect width="47" height="47" fill="white"/>
</clipPath>
</defs>
</svg>
