<svg width="47" height="37" viewBox="0 0 47 37" fill="none" xmlns="http://www.w3.org/2000/svg">
<g id="terminal">
<g id="Group">
<path id="Vector" d="M42.2656 1.33838C44.4748 1.33838 46.2656 3.12924 46.2656 5.33838V31.6616C46.2656 33.8707 44.4748 35.6616 42.2656 35.6616H4.73438C2.52524 35.6616 0.734375 33.8707 0.734375 31.6616V5.33838C0.734375 3.12924 2.52524 1.33838 4.73437 1.33838H42.2656ZM47 4.604C47 2.39486 45.2091 0.604004 43 0.604004H4C1.79086 0.604004 0 2.39486 0 4.604V32.396C0 34.6051 1.79086 36.396 4 36.396H43C45.2091 36.396 47 34.6051 47 32.396V4.604Z" fill="#C23B3B"/>
<path id="Vector_2" d="M46.3427 6.64423H0.642578C0.439786 6.64423 0.275391 6.80862 0.275391 7.01141C0.275391 7.21421 0.439785 7.3786 0.642578 7.3786H46.3427C46.5455 7.3786 46.7099 7.21421 46.7099 7.01141C46.7099 6.80862 46.5455 6.64423 46.3427 6.64423Z" fill="#C23B3B"/>
</g>
<path id="dot-3" d="M4.4136 5.19755C5.05158 5.19755 5.56877 4.68036 5.56877 4.04238C5.56877 3.4044 5.05158 2.88721 4.4136 2.88721C3.77561 2.88721 3.25842 3.4044 3.25842 4.04238C3.25842 4.68036 3.77561 5.19755 4.4136 5.19755Z" fill="#E04F5F"/>
<path id="dot-2" d="M8.19851 5.19755C8.83649 5.19755 9.35368 4.68036 9.35368 4.04238C9.35368 3.4044 8.83649 2.88721 8.19851 2.88721C7.56052 2.88721 7.04333 3.4044 7.04333 4.04238C7.04333 4.68036 7.56052 5.19755 8.19851 5.19755Z" fill="#25B6D2"/>
<path id="dot-1" d="M11.9857 5.19755C12.6237 5.19755 13.1409 4.68036 13.1409 4.04238C13.1409 3.4044 12.6237 2.88721 11.9857 2.88721C11.3478 2.88721 10.8306 3.4044 10.8306 4.04238C10.8306 4.68036 11.3478 5.19755 11.9857 5.19755Z" fill="#32BEA6"/>
<g id="roller">
<g id="bigger">
<path id="big" d="M23.7022 17.3979L22.7142 17.3934C22.5632 16.6021 22.243 15.8331 21.7627 15.1401L22.4671 14.456C22.7187 14.2101 22.7233 13.8077 22.4717 13.5618L21.7673 12.8689C21.5157 12.623 21.104 12.6185 20.8524 12.8644L20.1433 13.5484C19.4389 13.0745 18.6521 12.7615 17.8424 12.6051L17.847 11.6393C17.847 11.2906 17.5588 11.0045 17.202 11.0045L16.2002 11C15.8434 11 15.5506 11.2817 15.5506 11.6304L15.546 12.5917C14.7318 12.7392 13.9404 13.0477 13.2268 13.5127L12.5406 12.8376C12.289 12.5917 11.8773 12.5872 11.6257 12.8331L10.9121 13.5306C10.6605 13.7765 10.6559 14.1788 10.9075 14.4247L11.5891 15.0954C11.0997 15.7884 10.7703 16.5618 10.6148 17.3621L9.65414 17.3577C9.29734 17.3577 9.00457 17.6393 9.00457 17.9881L9 18.9672C9 19.3159 9.28819 19.6021 9.645 19.6021L10.5965 19.6066C10.7474 20.4113 11.0676 21.1893 11.5525 21.8912L10.8801 22.544C10.6285 22.7899 10.6239 23.1923 10.8755 23.4382L11.58 24.1311C11.8316 24.377 12.2433 24.3815 12.4949 24.1356L13.1673 23.4829C13.8809 23.9613 14.6769 24.2787 15.4957 24.4307L15.4911 25.3607C15.4911 25.7094 15.7793 25.9955 16.1361 25.9955L17.1379 26C17.4947 26 17.7875 25.7183 17.7875 25.3696L17.7921 24.4307C18.6109 24.2787 19.4023 23.9657 20.1159 23.4873L20.7975 24.158C21.0491 24.4039 21.4608 24.4083 21.7124 24.1624L22.4443 23.4739C22.6959 23.228 22.7004 22.8256 22.4488 22.5797L21.7627 21.9046C22.2476 21.2116 22.5678 20.4382 22.7187 19.6423L23.7022 19.6468C24.059 19.6468 24.3518 19.3651 24.3518 19.0164L24.3564 18.0373C24.3518 17.6841 24.0636 17.3979 23.7022 17.3979ZM16.6805 22.7273C14.2926 22.7273 12.3576 20.8361 12.3576 18.5022C12.3576 16.1684 14.2926 14.2772 16.6805 14.2772C19.0683 14.2772 21.0033 16.1684 21.0033 18.5022C21.0033 20.8361 19.0638 22.7273 16.6805 22.7273Z" fill="white"/>
<path id="inner-circle" d="M16.6806 15.7929C15.1481 15.7929 13.9084 17.0045 13.9084 18.5023C13.9084 20.0001 15.1481 21.2117 16.6806 21.2117C18.213 21.2117 19.4527 20.0001 19.4527 18.5023C19.4527 17.0045 18.2084 15.7929 16.6806 15.7929ZM16.6806 17.6215C16.1819 17.6215 15.7794 18.0194 15.7794 18.5023C15.7794 18.7258 15.5964 18.9047 15.3677 18.9047C15.139 18.9047 14.956 18.7258 14.956 18.5023C14.956 17.5679 15.7336 16.8123 16.6851 16.8123C16.9139 16.8123 17.0968 16.9911 17.0968 17.2147C17.0968 17.4382 16.9093 17.6215 16.6806 17.6215Z" fill="white"/>
</g>
<g id="smaller">
<path id="half-circle" d="M27.5897 23.795C26.8019 23.795 26.1573 24.3653 26.1573 25.0702C26.1573 25.2402 26.3125 25.3748 26.4995 25.3748C26.6865 25.3748 26.8417 25.2367 26.8417 25.0702C26.8417 24.7018 27.1759 24.4043 27.5897 24.4043C27.7806 24.4043 27.9318 24.2661 27.9318 24.0997C27.9318 23.9296 27.7767 23.795 27.5897 23.795Z" fill="white"/>
<path id="big_2" d="M31.7356 25.9805L31.2064 25.7786C31.3138 25.3429 31.3218 24.886 31.2183 24.4326L31.7555 24.2413C31.9544 24.1705 32.0539 23.9686 31.9703 23.7915L31.7475 23.2956C31.6679 23.1185 31.4411 23.0299 31.2422 23.1043L30.7011 23.2991C30.4226 22.913 30.0605 22.5907 29.6468 22.3463L29.8775 21.8646C29.9611 21.6875 29.8696 21.4856 29.6746 21.4112L29.1216 21.1987C28.9226 21.1243 28.6959 21.2058 28.6123 21.3793L28.3776 21.8646C27.8922 21.769 27.3829 21.7619 26.8816 21.8504L26.6588 21.3581C26.5792 21.181 26.3524 21.0924 26.1535 21.1668L25.5965 21.3652C25.3975 21.436 25.2981 21.6379 25.3816 21.815L25.6044 22.3074C25.1708 22.5518 24.8087 22.8705 24.5302 23.2389L23.9851 23.0299C23.7862 22.9556 23.5594 23.037 23.4758 23.2106L23.2371 23.7029C23.1536 23.88 23.2451 24.0819 23.44 24.1563L23.9811 24.3617C23.8737 24.7939 23.8618 25.2473 23.9573 25.7006L23.4162 25.8955C23.2172 25.9663 23.1178 26.1682 23.2013 26.3453L23.4241 26.8412C23.5037 27.0183 23.7305 27.1068 23.9294 27.0325L24.4665 26.8412C24.745 27.2308 25.1031 27.5567 25.5169 27.8046L25.2901 28.2757C25.2066 28.4528 25.2981 28.6547 25.493 28.7291L26.0461 28.9416C26.245 29.016 26.4718 28.9345 26.5553 28.761L26.7821 28.2934C27.2715 28.3926 27.7847 28.3997 28.298 28.3111L28.5089 28.7822C28.5884 28.9593 28.8152 29.0479 29.0142 28.9735L29.5712 28.7752C29.7701 28.7043 29.8696 28.5024 29.786 28.3253L29.5751 27.8542C30.0128 27.6063 30.3788 27.2804 30.6573 26.912L31.1825 27.1139C31.3815 27.1883 31.6082 27.1068 31.6918 26.9333L31.9305 26.4409C32.026 26.2603 31.9345 26.0584 31.7356 25.9805ZM27.5898 27.1104C26.3246 27.1104 25.2941 26.1965 25.2941 25.0666C25.2941 23.9402 26.3206 23.0229 27.5898 23.0229C28.859 23.0229 29.8855 23.9367 29.8855 25.0666C29.8815 26.1965 28.855 27.1104 27.5898 27.1104Z" fill="white"/>
</g>
</g>
<g id="inner-text">
<g id="code-lines">
<line id="Line 1" x1="5.5" y1="12.5" x2="17.5" y2="12.5" stroke="white" stroke-linecap="round"/>
<line id="Line 2" x1="15.5" y1="17.5" x2="27.5" y2="17.5" stroke="white" stroke-linecap="round"/>
<line id="Line 3" x1="23.5" y1="23.5" x2="35.5" y2="23.5" stroke="white" stroke-linecap="round"/>
</g>
<line id="pointer" x1="40.25" y1="20" x2="40.25" y2="28" stroke="#C23B3B" stroke-width="0.5"/>
</g>
</g>
</svg>
