<svg width="47" height="37" viewBox="0 0 47 37" fill="none" xmlns="http://www.w3.org/2000/svg">
<g id="terminal">
<g id="Group">
<path id="Vector" d="M42.2656 1.33838C44.4748 1.33838 46.2656 3.12924 46.2656 5.33838V31.6616C46.2656 33.8707 44.4748 35.6616 42.2656 35.6616H4.73438C2.52524 35.6616 0.734375 33.8707 0.734375 31.6616V5.33838C0.734375 3.12924 2.52524 1.33838 4.73437 1.33838H42.2656ZM47 4.604C47 2.39486 45.2091 0.604004 43 0.604004H4C1.79086 0.604004 0 2.39486 0 4.604V32.396C0 34.6051 1.79086 36.396 4 36.396H43C45.2091 36.396 47 34.6051 47 32.396V4.604Z" fill="#C23B3B"/>
<path id="Vector_2" d="M46.3427 6.64423H0.642578C0.439786 6.64423 0.275391 6.80862 0.275391 7.01141C0.275391 7.21421 0.439785 7.3786 0.642578 7.3786H46.3427C46.5455 7.3786 46.7099 7.21421 46.7099 7.01141C46.7099 6.80862 46.5455 6.64423 46.3427 6.64423Z" fill="#C23B3B"/>
</g>
<path id="dot-3" d="M4.4136 5.19755C5.05158 5.19755 5.56877 4.68036 5.56877 4.04238C5.56877 3.4044 5.05158 2.88721 4.4136 2.88721C3.77561 2.88721 3.25842 3.4044 3.25842 4.04238C3.25842 4.68036 3.77561 5.19755 4.4136 5.19755Z" fill="#E04F5F"/>
<path id="dot-2" d="M8.19851 5.19755C8.83649 5.19755 9.35368 4.68036 9.35368 4.04238C9.35368 3.4044 8.83649 2.88721 8.19851 2.88721C7.56052 2.88721 7.04333 3.4044 7.04333 4.04238C7.04333 4.68036 7.56052 5.19755 8.19851 5.19755Z" fill="#25B6D2"/>
<path id="dot-1" d="M11.9857 5.19755C12.6237 5.19755 13.1409 4.68036 13.1409 4.04238C13.1409 3.4044 12.6237 2.88721 11.9857 2.88721C11.3478 2.88721 10.8306 3.4044 10.8306 4.04238C10.8306 4.68036 11.3478 5.19755 11.9857 5.19755Z" fill="#32BEA6"/>
</g>
</svg>
