<svg width="303" height="258" viewBox="0 0 303 258" fill="none" xmlns="http://www.w3.org/2000/svg">
<g id="Web-Developer" clip-path="url(#clip0_441_2)">
<path id="Vector" d="M90.7937 257.843C140.712 257.843 190 254.539 190 250.464C190 246.388 140.712 243.085 90.7937 243.085C40.875 243.085 -12 246.388 -12 250.464C-12 254.539 40.875 257.843 90.7937 257.843Z" fill="#827C7C" fill-opacity="0.48"/>
<g id="board">
<path id="Vector_2" d="M293.648 1.16931H138.353C133.935 1.16931 130.353 4.75103 130.353 9.16931V113.808C130.353 118.226 133.935 121.808 138.353 121.808H293.648C298.066 121.808 301.648 118.226 301.648 113.808V9.16931C301.648 4.75103 298.066 1.16931 293.648 1.16931Z" fill="white"/>
<path id="Vector_3" d="M-nan -nanL301.647 123H130.353C129.994 123 129.65 122.877 129.396 122.658C129.142 122.438 129 122.141 129 121.831V1.1692C129 0.85911 129.142 0.561736 129.396 0.342468C129.65 0.1232 129.994 0 130.353 0H301.647C302.004 0.00598648 302.344 0.131086 302.596 0.349069C302.848 0.567053 302.993 0.860984 303 1.1692V121.831C302.993 122.139 302.848 122.433 302.596 122.651C302.344 122.869 302.004 122.994 301.647 123L-nan -nanL-nan -nanZM131.707 112.66C131.706 117.079 135.288 120.662 139.707 120.662H292.295C296.713 120.662 300.295 117.08 300.295 112.662V10.3384C300.295 5.92012 296.713 2.3384 292.295 2.3384H139.73C135.313 2.3384 131.731 5.91901 131.73 10.3366L131.707 112.66Z" fill="#D1D3D4"/>
<path id="Vector_4" d="M-nan -nanL300.562 24.1795H130.344C129.988 24.1795 129.646 24.0687 129.394 23.8715C129.142 23.6744 129 23.407 129 23.1282C129 22.8494 129.142 22.582 129.394 22.3848C129.646 22.1876 129.988 22.0769 130.344 22.0769H300.562C300.918 22.0769 301.26 22.1876 301.512 22.3848C301.764 22.582 301.906 22.8494 301.906 23.1282C301.899 23.4053 301.755 23.6696 301.504 23.8656C301.254 24.0616 300.916 24.1741 300.562 24.1795L-nan -nanL-nan -nanZ" fill="#D1D3D4"/>
</g>
<path id="Vector_5" d="M136.996 232.001C139.321 232.001 156.647 233.879 164.757 237.908C172.867 241.938 174.623 242.252 172.978 247.693C171.334 253.133 157.053 254.473 146.182 252.423C139.181 250.983 132.427 248.528 126.136 245.135L136.996 232.001Z" fill="#C23B3B"/>
<path id="Vector_6" d="M156.434 253.874C152.965 253.861 149.506 253.521 146.101 252.859C139.052 251.409 132.251 248.94 125.913 245.531C125.854 245.495 125.803 245.448 125.763 245.392C125.722 245.337 125.694 245.273 125.679 245.206C125.667 245.14 125.67 245.072 125.688 245.007C125.705 244.942 125.737 244.882 125.781 244.831L136.641 231.696C136.681 231.643 136.733 231.599 136.793 231.569C136.853 231.539 136.919 231.523 136.986 231.524H137.088C139.92 231.524 156.84 233.452 164.96 237.482L166.787 238.385C173.293 241.572 175.049 242.445 173.425 247.825C172.4 251.235 165.721 253.874 156.434 253.874ZM126.857 244.993C132.968 248.22 139.505 250.567 146.274 251.966C157.185 253.996 171.029 252.555 172.542 247.561C173.932 242.932 172.927 242.435 166.381 239.228L164.554 238.324C156.809 234.478 140.244 232.519 137.21 232.458L126.857 244.993Z" fill="#231F20"/>
<path id="Vector_7" d="M139.321 231.95C140.853 232.326 142.187 233.266 143.055 234.584C143.923 235.902 144.26 237.499 144 239.055C143.239 244.831 131.028 245.074 130.328 245.145C129.628 245.216 139.321 231.95 139.321 231.95Z" fill="white"/>
<path id="Vector_8" d="M130.328 245.47C130.237 245.467 130.149 245.442 130.071 245.395C129.992 245.349 129.927 245.284 129.881 245.206C129.729 244.902 129.485 244.435 138.945 231.636C138.999 231.561 139.075 231.505 139.162 231.474C139.249 231.443 139.343 231.439 139.432 231.463C139.483 231.463 145.269 232.914 144.507 239.035C143.736 244.912 132.612 245.429 130.389 245.47H130.328ZM139.463 232.448C136.489 236.508 132.063 242.598 130.957 244.526C133.738 244.394 142.883 243.613 143.502 238.913C143.741 237.538 143.465 236.123 142.728 234.938C141.99 233.753 140.842 232.881 139.503 232.488L139.463 232.448Z" fill="#231F20"/>
<path id="Vector_9" d="M48.8233 245.176C48.4681 245.358 45.149 249.672 30.6751 251.398C16.2012 253.123 10.8319 256.239 7.60416 248.637C4.37646 241.034 6.58916 236.122 13.6942 233.95C20.7992 231.778 40.48 229.981 44.337 233.615C48.194 237.249 48.8233 245.176 48.8233 245.176Z" fill="#C23B3B"/>
<path id="Vector_10" d="M14.7499 253.976C11.1669 253.976 8.86288 252.778 7.17798 248.819C5.49308 244.861 5.23933 241.461 6.46748 238.832C7.60428 236.396 9.99968 234.599 13.5725 233.513C20.2512 231.483 40.541 229.392 44.6619 233.28C48.6103 236.995 49.2396 244.81 49.27 245.135C49.2747 245.221 49.2565 245.307 49.2173 245.383C49.178 245.46 49.1192 245.525 49.0467 245.571L48.9046 245.693C44.733 249.489 36.7246 251.144 30.7158 251.854C27.5998 252.23 24.9202 252.666 22.5958 253.052C20.0069 253.553 17.3844 253.862 14.7499 253.976V253.976ZM33.4868 231.991C26.534 231.991 18.1095 233.097 13.8668 234.396C10.5376 235.411 8.32492 237.035 7.30992 239.228C6.19342 241.603 6.43702 244.709 8.03057 248.454C10.4158 254.087 13.9379 253.529 22.4233 252.139C24.7984 251.753 27.4983 251.316 30.6245 250.941C36.4912 250.24 44.3168 248.637 48.3058 245.003C48.1637 243.673 47.2908 237.106 44.0123 233.98C42.5507 232.539 38.3791 231.991 33.4868 231.991Z" fill="#231F20"/>
<path id="Vector_11" d="M53.4416 242.07C53.4416 242.07 46.8746 247.551 42.4999 246.901C38.1253 246.252 32.0759 243.856 34.5119 239.136C36.9479 234.417 52.6296 231.575 52.6296 231.575L53.4416 242.07Z" fill="white"/>
<path id="Vector_12" d="M43.2509 247.419C42.9757 247.419 42.7009 247.399 42.4287 247.358C39.1503 246.871 35.1918 245.47 33.923 242.983C33.6098 242.346 33.4615 241.641 33.4916 240.931C33.5218 240.222 33.7294 239.531 34.0956 238.923C36.6128 234.031 51.8987 231.24 52.5483 231.118C52.6122 231.107 52.6777 231.109 52.7406 231.125C52.8035 231.141 52.8625 231.169 52.9137 231.209C52.9651 231.25 53.0078 231.301 53.0392 231.358C53.0706 231.416 53.0901 231.479 53.0964 231.544L53.9084 242.029C53.914 242.103 53.9023 242.178 53.8741 242.246C53.8459 242.315 53.802 242.376 53.746 242.425C53.4821 242.638 47.7067 247.419 43.2509 247.419ZM52.2133 232.133C49.5236 232.661 36.9883 235.33 34.9583 239.35C34.6589 239.827 34.4851 240.372 34.4532 240.935C34.4212 241.497 34.5322 242.059 34.7756 242.567C35.8921 244.729 39.5461 245.988 42.6013 246.444C46.3263 247.003 51.919 242.719 52.9949 241.867L52.2133 232.133Z" fill="#231F20"/>
<path id="Vector_13" d="M132.327 196.029C132.327 196.029 125.405 223.028 100.142 228.185C74.8785 233.341 61.8053 231.981 52.853 214.929C43.9007 197.877 49.808 187.442 49.808 187.442L129.536 185.859L132.327 196.029Z" fill="#231F20"/>
<path id="Vector_14" d="M79.3038 231.341C67.1238 231.341 58.6688 227.099 52.3961 215.162C43.4235 198.059 49.138 187.625 49.3511 187.189C49.3954 187.112 49.459 187.048 49.5355 187.004C49.6121 186.959 49.699 186.936 49.7876 186.935L129.516 185.352C129.631 185.346 129.744 185.38 129.837 185.449C129.929 185.517 129.995 185.615 130.023 185.727L132.784 195.877C132.804 195.964 132.804 196.054 132.784 196.141C132.713 196.415 125.496 223.546 100.203 228.672C92.2146 230.326 85.3024 231.341 79.3038 231.341ZM50.1428 187.94C49.3511 189.615 45.352 199.541 53.2995 214.695C62.3837 231.95 75.6295 232.681 99.9895 227.687C123.771 222.836 131.191 198.019 131.749 196.029L129.12 186.377L50.1428 187.94Z" fill="#231F20"/>
<path id="Vector_15" d="M43.8599 196.273C43.8599 196.273 30.7969 154.049 32.5122 127.588C34.2276 101.127 44.0629 100.183 57.4812 98.6908C63.4393 98.0209 95.1783 93.3215 107.064 107.308C118.95 121.295 139.869 186.803 139.869 186.803L43.8599 196.273Z" fill="#C23B3B"/>
<path id="Vector_16" d="M103.331 113.36L103.331 113.36L103.309 113.384C103.316 113.39 103.324 113.393 103.333 113.393C103.341 113.393 103.349 113.389 103.355 113.383C103.361 113.377 103.364 113.368 103.365 113.36C103.365 113.351 103.361 113.343 103.355 113.337L103.331 113.36ZM103.331 113.36L103.331 113.36L103.331 113.36ZM103.296 113.372C103.299 113.375 103.303 113.379 103.307 113.383L103.354 113.335C103.35 113.331 103.346 113.327 103.342 113.324L103.331 113.336L103.319 113.348L103.307 113.36L103.296 113.372Z" fill="#231F20" stroke="black"/>
<path id="Vector_17" d="M94.9449 201.287L62.5867 192.223L122.015 181.048L154.18 194.527L94.9449 201.287Z" fill="white"/>
<path id="Vector_18" d="M94.9449 201.825C94.9015 201.835 94.8564 201.835 94.813 201.825L62.4548 192.69C62.3202 192.69 62.1911 192.636 62.0959 192.541C62.0007 192.446 61.9473 192.317 61.9473 192.182C61.9473 192.048 62.0007 191.919 62.0959 191.824C62.1911 191.728 62.3202 191.675 62.4548 191.675L121.883 180.51C121.975 180.48 122.075 180.48 122.167 180.51L154.333 193.989C154.435 194.033 154.521 194.109 154.576 194.206C154.631 194.304 154.653 194.416 154.637 194.527C154.622 194.639 154.57 194.743 154.489 194.822C154.408 194.901 154.303 194.951 154.19 194.964L95.0058 201.825H94.9449ZM64.8197 192.355L94.9855 200.81L152.191 194.284L121.954 181.616L64.8197 192.355Z" fill="#231F20"/>
<g id="arm">
<path id="Vector_19" d="M24.2459 188.685L24.2457 188.685C23.6757 188.322 23.1454 187.69 22.6719 186.771C22.1998 185.854 21.7994 184.681 21.4741 183.277C20.8235 180.471 20.4869 176.805 20.4425 172.572C20.3537 164.11 21.4331 153.459 23.4371 143.043C25.4417 132.624 28.3653 122.475 31.9501 115.008C33.7434 111.272 35.689 108.236 37.746 106.172C39.7925 104.118 41.902 103.071 44.0541 103.176L44.0548 103.176C44.0768 103.18 44.1098 103.187 44.1532 103.195C44.2401 103.212 44.3688 103.238 44.5341 103.272C44.8648 103.341 45.3418 103.445 45.9247 103.584C47.0912 103.863 48.6778 104.283 50.3607 104.849C52.0457 105.415 53.8152 106.123 55.353 106.974C56.899 107.831 58.1662 108.808 58.8963 109.892C59.0281 110.088 59.1315 110.406 59.172 110.883C59.212 111.354 59.1873 111.94 59.0988 112.633C58.9217 114.021 58.4977 115.78 57.8953 117.807C56.6912 121.858 54.7982 126.901 52.8332 132.042C52.5876 132.685 52.3408 133.329 52.0942 133.973C50.3715 138.47 48.6551 142.95 47.3697 146.789C46.6349 148.984 46.0369 150.981 45.6583 152.661C45.2837 154.322 45.1084 155.735 45.2673 156.731C45.4453 157.847 46.2747 158.671 47.4028 159.277C48.5349 159.885 50.0528 160.323 51.7926 160.636C55.2781 161.265 59.7923 161.419 64.2409 161.351C68.6959 161.283 73.1121 160.99 76.4126 160.715C78.0634 160.577 79.4363 160.444 80.3968 160.345C80.8656 160.296 81.2363 160.256 81.4932 160.228L87.5618 180.001C87.5273 180.015 87.4909 180.03 87.4524 180.045C87.1024 180.184 86.5863 180.388 85.9231 180.643C84.5966 181.153 82.6819 181.871 80.3316 182.698C75.6302 184.354 69.1901 186.451 62.2307 188.214C55.2683 189.978 47.8028 191.404 41.0465 191.729C34.2722 192.054 28.2972 191.266 24.2459 188.685Z" fill="#C23B3B" stroke="black"/>
<g id="Vector_20">
<mask id="path-20-inside-1_441_2" fill="white">
<path d="M83.8107 167.521C90.9529 167.805 90.8798 167.62 97.6647 169.923C101.542 171.242 104.111 171.114 108.681 175.258C110.428 176.323 112.076 177.542 113.606 178.902C114.826 180.058 114.546 181.288 112.6 180.824C110.338 180.285 108.171 179.408 106.171 178.221C110.992 181.623 115.336 185.655 119.087 190.209C119.51 190.729 119.939 191.483 119.517 192C119.096 192.518 118.049 192.103 117.457 191.636L106.779 182.839C109.59 184.94 112.034 187.492 114.012 190.391C114.296 190.809 114.579 191.369 114.343 191.782C113.95 192.553 112.777 192.075 112.126 191.5C108.915 188.681 105.957 185.585 103.288 182.248L109.262 189.97C109.221 190.123 109.15 190.267 109.054 190.392C108.957 190.518 108.837 190.623 108.7 190.702C108.562 190.78 108.411 190.831 108.253 190.851C108.096 190.87 107.937 190.859 107.784 190.817C107.172 190.612 106.628 190.242 106.214 189.746L99.1368 182.681L103.377 187.736C104.043 188.524 104.734 189.677 104.09 190.505C103.445 191.334 101.811 190.664 100.865 189.937C97.0524 186.917 97.151 183.037 92.7676 180.929C91.1757 180.135 85.5493 180.294 83.8223 179.896C81.3398 179.316 87.8806 180.544 85.3295 180.437"/>
</mask>
<path d="M83.8107 167.521C90.9529 167.805 90.8798 167.62 97.6647 169.923C101.542 171.242 104.111 171.114 108.681 175.258C110.428 176.323 112.076 177.542 113.606 178.902C114.826 180.058 114.546 181.288 112.6 180.824C110.338 180.285 108.171 179.408 106.171 178.221C110.992 181.623 115.336 185.655 119.087 190.209C119.51 190.729 119.939 191.483 119.517 192C119.096 192.518 118.049 192.103 117.457 191.636L106.779 182.839C109.59 184.94 112.034 187.492 114.012 190.391C114.296 190.809 114.579 191.369 114.343 191.782C113.95 192.553 112.777 192.075 112.126 191.5C108.915 188.681 105.957 185.585 103.288 182.248L109.262 189.97C109.221 190.123 109.15 190.267 109.054 190.392C108.957 190.518 108.837 190.623 108.7 190.702C108.562 190.78 108.411 190.831 108.253 190.851C108.096 190.87 107.937 190.859 107.784 190.817C107.172 190.612 106.628 190.242 106.214 189.746L99.1368 182.681L103.377 187.736C104.043 188.524 104.734 189.677 104.09 190.505C103.445 191.334 101.811 190.664 100.865 189.937C97.0524 186.917 97.151 183.037 92.7676 180.929C91.1757 180.135 85.5493 180.294 83.8223 179.896C81.3398 179.316 87.8806 180.544 85.3295 180.437" fill="#96865E" fill-opacity="0.99"/>
<path d="M97.6647 169.923L97.9867 168.976L97.9861 168.976L97.6647 169.923ZM108.681 175.258L108.009 175.998L108.079 176.062L108.16 176.112L108.681 175.258ZM113.606 178.902L114.293 178.176L114.282 178.165L114.27 178.154L113.606 178.902ZM112.6 180.824L112.833 179.851L112.832 179.851L112.6 180.824ZM106.171 178.221L106.681 177.361L105.595 179.038L106.171 178.221ZM119.087 190.209L119.863 189.578L119.859 189.574L119.087 190.209ZM117.457 191.636L116.821 192.408L116.829 192.414L116.837 192.421L117.457 191.636ZM106.779 182.839L107.378 182.038L106.143 183.61L106.779 182.839ZM114.012 190.391L114.84 189.829L114.838 189.828L114.012 190.391ZM114.343 191.782L113.475 191.287L113.463 191.307L113.453 191.327L114.343 191.782ZM112.126 191.5L112.788 190.751L112.786 190.748L112.126 191.5ZM103.288 182.248L104.069 181.624L102.497 182.86L103.288 182.248ZM109.262 189.97L110.228 190.228L110.355 189.75L110.053 189.359L109.262 189.97ZM107.784 190.817L107.468 191.765L107.493 191.773L107.517 191.78L107.784 190.817ZM106.214 189.746L106.981 189.105L106.952 189.07L106.92 189.038L106.214 189.746ZM99.1368 182.681L99.8433 181.973L98.3706 183.324L99.1368 182.681ZM103.377 187.736L102.611 188.379L102.613 188.382L103.377 187.736ZM100.865 189.937L100.244 190.721L100.25 190.725L100.256 190.73L100.865 189.937ZM92.7676 180.929L92.3212 181.824L92.3277 181.827L92.3343 181.831L92.7676 180.929ZM83.8223 179.896L83.595 180.87L83.5976 180.87L83.8223 179.896ZM83.7709 168.521C87.3885 168.665 89.0673 168.688 90.7129 168.952C92.3385 169.214 93.9368 169.714 97.3432 170.87L97.9861 168.976C94.6077 167.829 92.8501 167.27 91.0305 166.978C89.2309 166.688 87.375 166.662 83.8504 166.522L83.7709 168.521ZM97.3427 170.87C101.389 172.246 103.64 172.037 108.009 175.998L109.352 174.517C104.581 170.191 101.695 170.237 97.9867 168.976L97.3427 170.87ZM108.16 176.112C109.856 177.145 111.457 178.329 112.941 179.649L114.27 178.154C112.696 176.755 110.999 175.5 109.201 174.404L108.16 176.112ZM112.918 179.628C113.151 179.849 113.269 180.033 113.317 180.146C113.34 180.2 113.34 180.223 113.34 180.215C113.339 180.204 113.338 180.158 113.364 180.093C113.392 180.024 113.437 179.969 113.482 179.934C113.523 179.903 113.543 179.903 113.514 179.91C113.484 179.918 113.415 179.928 113.297 179.923C113.18 179.918 113.026 179.897 112.833 179.851L112.368 181.797C112.941 181.933 113.495 181.973 113.986 181.854C114.5 181.729 114.987 181.41 115.216 180.848C115.431 180.322 115.336 179.784 115.157 179.364C114.975 178.936 114.67 178.533 114.293 178.176L112.918 179.628ZM112.832 179.851C110.668 179.336 108.594 178.496 106.681 177.361L105.661 179.081C107.747 180.319 110.009 181.235 112.369 181.797L112.832 179.851ZM105.595 179.038C110.343 182.389 114.621 186.359 118.315 190.845L119.859 189.574C116.051 184.95 111.641 180.857 106.748 177.404L105.595 179.038ZM118.311 190.84C118.491 191.062 118.62 191.272 118.671 191.426C118.695 191.496 118.689 191.515 118.691 191.493C118.694 191.458 118.711 191.407 118.742 191.369L120.293 192.632C120.805 192.002 120.732 191.278 120.566 190.786C120.403 190.303 120.105 189.877 119.863 189.578L118.311 190.84ZM118.742 191.369C118.821 191.272 118.917 191.244 118.943 191.24C118.953 191.239 118.907 191.246 118.795 191.218C118.565 191.16 118.281 191.012 118.076 190.851L116.837 192.421C117.225 192.727 117.76 193.02 118.308 193.158C118.793 193.279 119.696 193.365 120.293 192.632L118.742 191.369ZM118.093 190.864L107.415 182.067L106.143 183.61L116.821 192.408L118.093 190.864ZM106.18 183.639C108.903 185.675 111.27 188.147 113.186 190.955L114.838 189.828C112.798 186.837 110.277 184.205 107.378 182.038L106.18 183.639ZM113.185 190.953C113.305 191.131 113.385 191.281 113.419 191.389C113.454 191.502 113.398 191.422 113.475 191.287L115.212 192.278C115.525 191.729 115.444 191.163 115.326 190.788C115.207 190.408 115.002 190.069 114.84 189.829L113.185 190.953ZM113.453 191.327C113.479 191.277 113.547 191.213 113.626 191.189C113.672 191.175 113.657 191.194 113.55 191.17C113.327 191.12 113.018 190.954 112.788 190.751L111.464 192.249C111.884 192.621 112.488 192.981 113.112 193.121C113.429 193.192 113.822 193.222 114.219 193.099C114.649 192.965 115.011 192.673 115.234 192.238L113.453 191.327ZM112.786 190.748C109.618 187.968 106.702 184.915 104.069 181.624L102.507 182.873C105.213 186.256 108.211 189.394 111.466 192.251L112.786 190.748ZM102.497 182.86L108.471 190.582L110.053 189.359L104.079 181.636L102.497 182.86ZM108.295 189.713C108.289 189.738 108.277 189.762 108.261 189.783L109.847 191.002C110.024 190.771 110.153 190.508 110.228 190.228L108.295 189.713ZM108.261 189.783C108.245 189.804 108.225 189.821 108.203 189.834L109.197 191.569C109.449 191.425 109.67 191.232 109.847 191.002L108.261 189.783ZM108.203 189.834C108.18 189.847 108.155 189.855 108.129 189.858L108.378 191.843C108.666 191.807 108.944 191.714 109.197 191.569L108.203 189.834ZM108.129 189.858C108.103 189.862 108.077 189.86 108.051 189.853L107.517 191.78C107.797 191.858 108.09 191.879 108.378 191.843L108.129 189.858ZM108.101 189.868C107.664 189.722 107.276 189.458 106.981 189.105L105.447 190.387C105.98 191.025 106.68 191.502 107.468 191.765L108.101 189.868ZM106.92 189.038L99.8433 181.973L98.4303 183.389L105.507 190.454L106.92 189.038ZM98.3706 183.324L102.611 188.379L104.143 187.094L99.9029 182.038L98.3706 183.324ZM102.613 188.382C102.915 188.739 103.166 189.117 103.283 189.443C103.395 189.756 103.332 189.85 103.3 189.891L104.879 191.119C105.491 190.332 105.405 189.435 105.166 188.768C104.932 188.114 104.505 187.522 104.141 187.091L102.613 188.382ZM103.3 189.891C103.364 189.809 103.35 189.966 102.837 189.835C102.389 189.721 101.865 189.444 101.475 189.144L100.256 190.73C100.812 191.157 101.578 191.578 102.344 191.774C103.046 191.952 104.171 192.03 104.879 191.119L103.3 189.891ZM101.486 189.153C99.7461 187.775 98.9118 186.226 97.88 184.564C96.8493 182.903 95.6533 181.207 93.201 180.028L92.3343 181.831C94.2653 182.759 95.2117 184.057 96.1807 185.618C97.1487 187.178 98.1714 189.079 100.244 190.721L101.486 189.153ZM93.2141 180.034C92.6521 179.754 91.8521 179.601 91.0724 179.497C90.2566 179.389 89.3203 179.321 88.4055 179.266C87.4698 179.21 86.5878 179.169 85.7918 179.116C84.9874 179.062 84.3893 179 84.0469 178.921L83.5976 180.87C84.1187 180.99 84.8716 181.058 85.6576 181.111C86.452 181.165 87.3999 181.209 88.2857 181.262C89.1924 181.317 90.0691 181.382 90.81 181.48C91.5869 181.583 92.0872 181.707 92.3212 181.824L93.2141 180.034ZM84.0495 178.922C83.8981 178.887 83.786 178.859 83.7067 178.839C83.6172 178.816 83.5951 178.808 83.6065 178.812C83.6111 178.814 83.6328 178.821 83.6626 178.834C83.6777 178.841 83.7047 178.853 83.7378 178.872C83.7639 178.886 83.8317 178.925 83.907 178.99C83.9457 179.024 84.0077 179.083 84.0684 179.17C84.1277 179.254 84.2133 179.405 84.2406 179.613C84.2707 179.842 84.2198 180.074 84.0997 180.268C83.9912 180.443 83.8545 180.544 83.7683 180.596C83.6099 180.692 83.4654 180.718 83.4292 180.725C83.372 180.735 83.3264 180.738 83.3042 180.739C83.2584 180.741 83.2249 180.739 83.2171 180.738C83.2105 180.738 83.2055 180.738 83.2027 180.737C83.1998 180.737 83.1981 180.737 83.1976 180.737C83.197 180.737 83.1993 180.737 83.2051 180.738C83.2107 180.739 83.2183 180.74 83.2282 180.741C83.4153 180.768 83.8918 180.857 84.3869 180.966C84.6305 181.02 84.8673 181.075 85.0648 181.127C85.2788 181.183 85.3964 181.222 85.4322 181.238C85.4376 181.24 85.4173 181.232 85.3838 181.212C85.3718 181.205 85.2499 181.138 85.1371 180.993C85.0751 180.914 84.9756 180.76 84.9423 180.539C84.9049 180.291 84.9649 180.049 85.0905 179.856C85.2012 179.686 85.3363 179.593 85.4108 179.549C85.4898 179.503 85.5573 179.479 85.5931 179.468C85.7018 179.433 85.7628 179.44 85.6734 179.443C85.6151 179.445 85.5184 179.444 85.3712 179.438L85.2878 181.437C85.4594 181.444 85.6106 181.446 85.738 181.442C85.8342 181.439 86.0187 181.431 86.1976 181.374C86.2468 181.359 86.5587 181.266 86.7665 180.947C86.8968 180.747 86.9586 180.498 86.92 180.241C86.8854 180.012 86.7818 179.85 86.7129 179.762C86.5862 179.599 86.4393 179.513 86.3923 179.485C86.3239 179.445 86.2586 179.415 86.2101 179.395C85.8929 179.261 85.2941 179.118 84.8163 179.013C84.3054 178.9 83.7717 178.798 83.5103 178.761C83.4837 178.757 83.3424 178.735 83.2121 178.741C83.1857 178.742 83.1367 178.745 83.0767 178.756C83.0378 178.763 82.8913 178.789 82.7316 178.886C82.6447 178.939 82.5075 179.04 82.3987 179.216C82.2784 179.411 82.2274 179.642 82.2575 179.873C82.3078 180.256 82.5564 180.466 82.5938 180.499C82.7207 180.609 82.8495 180.662 82.8572 180.665C82.8965 180.682 82.9309 180.695 82.9514 180.702C83.0751 180.745 83.3016 180.801 83.595 180.87L84.0495 178.922Z" fill="black" mask="url(#path-20-inside-1_441_2)"/>
</g>
<g id="Vector_21">
<mask id="path-22-inside-2_441_2" fill="white">
<path d="M122.22 193.904C121.645 193.869 121.094 193.608 120.661 193.164L117.726 190.41C117.928 190.721 118.13 191.043 118.315 191.355C118.505 191.599 118.636 191.896 118.693 192.215C118.75 192.534 118.731 192.863 118.639 193.168C118.573 193.324 118.476 193.46 118.355 193.564C118.234 193.669 118.094 193.739 117.944 193.769C117.621 193.786 117.297 193.727 116.993 193.593C116.689 193.46 116.41 193.256 116.176 192.994C115.568 192.386 114.976 191.766 114.393 191.146C114.399 191.182 114.402 191.218 114.401 191.254C114.381 191.438 114.328 191.614 114.244 191.772C114.161 191.929 114.049 192.063 113.916 192.166C113.741 192.306 113.542 192.402 113.332 192.449C113.121 192.496 112.904 192.492 112.693 192.439C112.101 192.22 111.573 191.812 111.171 191.263L110.072 190.008C110.22 190.319 110.289 190.67 110.271 191.021C110.253 191.371 110.149 191.707 109.971 191.988C109.859 192.155 109.718 192.293 109.558 192.394C109.397 192.495 109.219 192.557 109.035 192.576C108.137 192.527 107.279 192.103 106.621 191.384C103.412 188.439 99.9302 185.916 96.2418 183.863C95.7864 183.599 95.3452 183.294 94.9113 182.969C94.1196 182.352 93.251 181.881 92.3373 181.571C90.8202 181.242 89.279 181.111 87.7432 181.182C87.0065 181.184 86.2868 181.185 85.6077 181.154C85.504 181.146 85.4062 181.092 85.3358 181.002C85.2653 180.913 85.2279 180.796 85.2316 180.677C85.2329 180.618 85.2442 180.561 85.265 180.508C85.2858 180.455 85.3156 180.407 85.3527 180.368C85.3898 180.329 85.4334 180.298 85.4811 180.279C85.5288 180.259 85.2161 180.455 85.6305 180.254C86.3011 180.286 87.0037 180.286 87.7234 180.285C89.3226 180.209 90.9277 180.345 92.5071 180.691C93.4965 181.028 94.4389 181.534 95.3025 182.192C95.7173 182.489 96.1401 182.775 96.5778 183.03C100.317 185.12 103.85 187.678 107.11 190.659C107.609 191.167 108.231 191.485 108.888 191.571C108.967 191.562 109.043 191.535 109.112 191.491C109.181 191.447 109.242 191.387 109.29 191.316C109.71 190.704 109 189.619 108.678 189.178L105.06 184.252C105.026 184.209 105 184.159 104.984 184.105C104.967 184.051 104.959 183.994 104.962 183.937C104.964 183.88 104.976 183.824 104.997 183.773C105.019 183.722 105.049 183.676 105.086 183.639C105.152 183.553 105.245 183.501 105.345 183.494C105.446 183.487 105.546 183.525 105.623 183.601L111.658 190.509C111.958 190.924 112.351 191.238 112.793 191.416C112.896 191.441 113.002 191.443 113.105 191.421C113.208 191.398 113.305 191.352 113.392 191.285C113.444 191.249 113.487 191.198 113.519 191.138L108.539 183.762C108.474 183.669 108.444 183.55 108.455 183.433C108.466 183.316 108.518 183.209 108.598 183.137C108.678 183.064 108.781 183.032 108.883 183.047C108.985 183.062 109.079 183.123 109.143 183.217C111.411 186.45 113.915 189.457 116.626 192.203C116.928 192.535 117.323 192.732 117.736 192.757C117.77 192.754 117.802 192.74 117.829 192.717C117.856 192.694 117.877 192.664 117.89 192.628C117.972 192.455 117.856 192.147 117.63 191.729C116.462 189.778 115.103 187.986 113.581 186.389L111.534 184.441C111.466 184.361 111.426 184.256 111.421 184.146C111.415 184.036 111.445 183.928 111.504 183.842C111.563 183.757 111.648 183.7 111.743 183.683C111.837 183.665 111.934 183.687 112.016 183.746C112.737 184.367 113.425 185.019 114.09 185.712L121.102 192.374C121.379 192.687 121.741 192.879 122.125 192.914C122.16 192.913 122.194 192.902 122.224 192.883C122.254 192.864 122.279 192.836 122.297 192.803C122.477 192.554 122.244 192.037 121.932 191.625C118.754 187.212 115.086 183.295 111.025 179.978C110.949 179.907 110.899 179.806 110.884 179.696C110.868 179.586 110.888 179.475 110.94 179.382C110.991 179.289 111.071 179.223 111.164 179.194C111.257 179.166 111.356 179.178 111.443 179.229C113.099 180.375 114.892 181.228 116.761 181.757C117.373 181.931 117.682 181.821 117.733 181.689C117.784 181.557 117.694 181.129 117.241 180.648C115.96 179.333 114.578 178.155 113.113 177.129C110.224 174.966 107.12 173.219 103.873 171.925C98.6992 169.87 91.0964 168.174 85.7128 167.89L84.035 167.79C83.9841 167.788 83.9339 167.773 83.8874 167.748C83.8408 167.723 83.7989 167.688 83.764 167.645C83.7291 167.601 83.7019 167.551 83.6839 167.495C83.666 167.44 83.6578 167.382 83.6596 167.323C83.6609 167.265 83.6722 167.207 83.693 167.154C83.7137 167.101 83.7435 167.054 83.7806 167.014C83.8177 166.975 83.8614 166.945 83.9091 166.925C83.9568 166.906 84.0076 166.897 84.0585 166.901L85.7782 166.987C91.1881 167.28 98.8428 168.982 104.122 171.079C107.43 172.382 110.593 174.149 113.538 176.34C115.045 177.407 116.466 178.629 117.786 179.989C118.453 180.711 118.699 181.533 118.431 182.114C118.274 182.44 117.83 182.945 116.597 182.597C115.886 182.401 115.185 182.157 114.498 181.866C117.43 184.612 120.121 187.682 122.533 191.031C123.19 191.971 123.323 192.761 122.926 193.341C122.842 193.466 122.735 193.569 122.614 193.643C122.492 193.718 122.358 193.763 122.22 193.775L122.22 193.904Z"/>
</mask>
<path d="M122.22 193.904C121.645 193.869 121.094 193.608 120.661 193.164L117.726 190.41C117.928 190.721 118.13 191.043 118.315 191.355C118.505 191.599 118.636 191.896 118.693 192.215C118.75 192.534 118.731 192.863 118.639 193.168C118.573 193.324 118.476 193.46 118.355 193.564C118.234 193.669 118.094 193.739 117.944 193.769C117.621 193.786 117.297 193.727 116.993 193.593C116.689 193.46 116.41 193.256 116.176 192.994C115.568 192.386 114.976 191.766 114.393 191.146C114.399 191.182 114.402 191.218 114.401 191.254C114.381 191.438 114.328 191.614 114.244 191.772C114.161 191.929 114.049 192.063 113.916 192.166C113.741 192.306 113.542 192.402 113.332 192.449C113.121 192.496 112.904 192.492 112.693 192.439C112.101 192.22 111.573 191.812 111.171 191.263L110.072 190.008C110.22 190.319 110.289 190.67 110.271 191.021C110.253 191.371 110.149 191.707 109.971 191.988C109.859 192.155 109.718 192.293 109.558 192.394C109.397 192.495 109.219 192.557 109.035 192.576C108.137 192.527 107.279 192.103 106.621 191.384C103.412 188.439 99.9302 185.916 96.2418 183.863C95.7864 183.599 95.3452 183.294 94.9113 182.969C94.1196 182.352 93.251 181.881 92.3373 181.571C90.8202 181.242 89.279 181.111 87.7432 181.182C87.0065 181.184 86.2868 181.185 85.6077 181.154C85.504 181.146 85.4062 181.092 85.3358 181.002C85.2653 180.913 85.2279 180.796 85.2316 180.677C85.2329 180.618 85.2442 180.561 85.265 180.508C85.2858 180.455 85.3156 180.407 85.3527 180.368C85.3898 180.329 85.4334 180.298 85.4811 180.279C85.5288 180.259 85.2161 180.455 85.6305 180.254C86.3011 180.286 87.0037 180.286 87.7234 180.285C89.3226 180.209 90.9277 180.345 92.5071 180.691C93.4965 181.028 94.4389 181.534 95.3025 182.192C95.7173 182.489 96.1401 182.775 96.5778 183.03C100.317 185.12 103.85 187.678 107.11 190.659C107.609 191.167 108.231 191.485 108.888 191.571C108.967 191.562 109.043 191.535 109.112 191.491C109.181 191.447 109.242 191.387 109.29 191.316C109.71 190.704 109 189.619 108.678 189.178L105.06 184.252C105.026 184.209 105 184.159 104.984 184.105C104.967 184.051 104.959 183.994 104.962 183.937C104.964 183.88 104.976 183.824 104.997 183.773C105.019 183.722 105.049 183.676 105.086 183.639C105.152 183.553 105.245 183.501 105.345 183.494C105.446 183.487 105.546 183.525 105.623 183.601L111.658 190.509C111.958 190.924 112.351 191.238 112.793 191.416C112.896 191.441 113.002 191.443 113.105 191.421C113.208 191.398 113.305 191.352 113.392 191.285C113.444 191.249 113.487 191.198 113.519 191.138L108.539 183.762C108.474 183.669 108.444 183.55 108.455 183.433C108.466 183.316 108.518 183.209 108.598 183.137C108.678 183.064 108.781 183.032 108.883 183.047C108.985 183.062 109.079 183.123 109.143 183.217C111.411 186.45 113.915 189.457 116.626 192.203C116.928 192.535 117.323 192.732 117.736 192.757C117.77 192.754 117.802 192.74 117.829 192.717C117.856 192.694 117.877 192.664 117.89 192.628C117.972 192.455 117.856 192.147 117.63 191.729C116.462 189.778 115.103 187.986 113.581 186.389L111.534 184.441C111.466 184.361 111.426 184.256 111.421 184.146C111.415 184.036 111.445 183.928 111.504 183.842C111.563 183.757 111.648 183.7 111.743 183.683C111.837 183.665 111.934 183.687 112.016 183.746C112.737 184.367 113.425 185.019 114.09 185.712L121.102 192.374C121.379 192.687 121.741 192.879 122.125 192.914C122.16 192.913 122.194 192.902 122.224 192.883C122.254 192.864 122.279 192.836 122.297 192.803C122.477 192.554 122.244 192.037 121.932 191.625C118.754 187.212 115.086 183.295 111.025 179.978C110.949 179.907 110.899 179.806 110.884 179.696C110.868 179.586 110.888 179.475 110.94 179.382C110.991 179.289 111.071 179.223 111.164 179.194C111.257 179.166 111.356 179.178 111.443 179.229C113.099 180.375 114.892 181.228 116.761 181.757C117.373 181.931 117.682 181.821 117.733 181.689C117.784 181.557 117.694 181.129 117.241 180.648C115.96 179.333 114.578 178.155 113.113 177.129C110.224 174.966 107.12 173.219 103.873 171.925C98.6992 169.87 91.0964 168.174 85.7128 167.89L84.035 167.79C83.9841 167.788 83.9339 167.773 83.8874 167.748C83.8408 167.723 83.7989 167.688 83.764 167.645C83.7291 167.601 83.7019 167.551 83.6839 167.495C83.666 167.44 83.6578 167.382 83.6596 167.323C83.6609 167.265 83.6722 167.207 83.693 167.154C83.7137 167.101 83.7435 167.054 83.7806 167.014C83.8177 166.975 83.8614 166.945 83.9091 166.925C83.9568 166.906 84.0076 166.897 84.0585 166.901L85.7782 166.987C91.1881 167.28 98.8428 168.982 104.122 171.079C107.43 172.382 110.593 174.149 113.538 176.34C115.045 177.407 116.466 178.629 117.786 179.989C118.453 180.711 118.699 181.533 118.431 182.114C118.274 182.44 117.83 182.945 116.597 182.597C115.886 182.401 115.185 182.157 114.498 181.866C117.43 184.612 120.121 187.682 122.533 191.031C123.19 191.971 123.323 192.761 122.926 193.341C122.842 193.466 122.735 193.569 122.614 193.643C122.492 193.718 122.358 193.763 122.22 193.775L122.22 193.904Z" fill="black" stroke="#C23B3B" stroke-width="2" mask="url(#path-22-inside-2_441_2)"/>
</g>
</g>
<path id="Vector_22" d="M154.18 194.527L168.989 154.891L108.505 156.089L94.9448 201.287L154.18 194.527Z" fill="white"/>
<path id="Vector_23" d="M94.9451 201.825C94.8711 201.826 94.798 201.81 94.7311 201.778C94.6643 201.747 94.6056 201.7 94.5593 201.642C94.5062 201.578 94.4692 201.503 94.4515 201.421C94.4338 201.34 94.436 201.256 94.4579 201.175L108.018 155.977C108.051 155.875 108.114 155.786 108.2 155.72C108.285 155.655 108.388 155.617 108.495 155.612L168.979 154.414C169.062 154.413 169.144 154.432 169.218 154.469C169.292 154.506 169.357 154.56 169.405 154.628C169.45 154.696 169.478 154.773 169.489 154.854C169.499 154.935 169.492 155.017 169.466 155.094L154.658 194.679C154.624 194.769 154.567 194.848 154.492 194.907C154.416 194.966 154.326 195.003 154.231 195.014L95.006 201.825H94.9451ZM108.891 156.617L95.6962 200.729L153.856 194.091L168.289 155.44L108.891 156.617Z" fill="#231F20"/>
<path id="Vector_24" d="M150.953 194.893C150.953 194.893 167.365 208.22 161.6 220.44C155.835 232.661 50.9651 246.627 50.9651 246.627L46.2454 230.651C46.2454 230.651 128.511 188.63 150.953 194.893Z" fill="#231F20"/>
<path id="Vector_25" d="M50.9649 247.135C50.8555 247.133 50.7495 247.097 50.6619 247.031C50.5744 246.965 50.5099 246.874 50.4778 246.769L45.758 230.793C45.7219 230.681 45.7278 230.559 45.7744 230.451C45.8211 230.343 45.9054 230.255 46.0118 230.204C46.2148 230.093 66.8497 219.587 89.9714 209.965C121.081 197.024 141.635 191.787 151.054 194.405C151.125 194.425 151.191 194.459 151.247 194.507C154.111 196.94 156.655 199.727 158.819 202.799C163.346 209.316 164.442 215.487 161.986 220.663C156.119 232.985 55.3193 246.556 51.036 247.124L50.9649 247.135ZM46.8441 230.895L51.3303 246.038C58.6587 245.023 155.622 231.646 161.072 220.207C166.431 208.92 151.937 196.364 150.679 195.339C129.343 189.645 52.9949 227.85 46.9049 230.915L46.8441 230.895Z" fill="#231F20"/>
<path id="Vector_26" d="M40.8149 188.772C40.8149 188.772 122.248 221.699 142.437 230.387L130.703 248.515C130.703 248.515 55.5121 247.043 33.9535 228.154C12.3949 209.265 13.826 177.82 40.8149 188.772Z" fill="#231F20"/>
<path id="Vector_27" d="M130.703 249.043C130.521 249.043 111.632 248.647 90.3572 245.947C61.7342 242.303 42.6522 236.457 33.6289 228.55C22.3421 218.664 14.4352 201.307 20.647 191.228C22.677 187.879 28.0971 183.058 41.0282 188.295C41.8402 188.63 122.695 221.333 142.66 229.91C142.728 229.938 142.789 229.98 142.838 230.035C142.887 230.089 142.924 230.154 142.944 230.225C142.965 230.296 142.97 230.371 142.959 230.444C142.949 230.518 142.923 230.588 142.883 230.651L131.15 248.809C131.102 248.884 131.036 248.944 130.958 248.985C130.879 249.026 130.792 249.046 130.703 249.043ZM30.8173 187.006C26.6457 187.006 23.4484 188.61 21.4996 191.756C16.7088 199.541 20.6978 215.883 34.2886 227.789C54.8018 245.764 125.365 247.896 130.429 248.018L141.696 230.61C120.848 221.678 41.4444 189.564 40.6324 189.239C37.5324 187.878 34.2012 187.12 30.8173 187.006Z" fill="#231F20"/>
<path id="Vector_28" d="M154.495 178.703C154.583 179.172 154.785 179.611 155.084 179.982L156.667 182.347C156.609 182.103 156.499 181.874 156.343 181.677C156.187 181.48 155.99 181.32 155.765 181.208C155.54 181.096 155.294 181.034 155.043 181.027C154.792 181.021 154.542 181.069 154.312 181.17C153.863 181.413 153.489 181.776 153.233 182.218C152.977 182.661 152.848 183.166 152.861 183.677C152.906 184.698 153.148 185.7 153.571 186.63C154.698 189.554 157.246 193.827 160.93 191.614C163.427 190.112 164.117 184.814 164.472 182.175C165.173 176.978 163.579 170.299 156.901 171.314C157.093 173.873 158.048 176.316 159.641 178.328C158.555 177.272 154.16 175.638 154.495 178.703Z" fill="#96865E" fill-opacity="0.99"/>
<path id="Vector_29" d="M158.89 192.69C158.482 192.693 158.077 192.624 157.692 192.487C155.287 191.665 153.785 188.569 153.104 186.793C152.662 185.807 152.41 184.746 152.364 183.667C152.347 183.067 152.501 182.474 152.809 181.958C153.116 181.442 153.563 181.025 154.099 180.754C154.348 180.64 154.618 180.582 154.891 180.581L154.668 180.246C154.321 179.81 154.091 179.293 153.998 178.744C153.917 178.341 153.973 177.922 154.157 177.555C154.341 177.187 154.642 176.891 155.013 176.714C156.053 176.393 157.177 176.476 158.159 176.947C157.184 175.243 156.601 173.343 156.454 171.385C156.447 171.268 156.484 171.153 156.557 171.061C156.63 170.969 156.734 170.908 156.85 170.888C157.866 170.666 158.92 170.694 159.923 170.969C160.925 171.245 161.846 171.761 162.605 172.471C164.99 174.826 165.386 179.069 164.95 182.266C164.554 185.189 163.843 190.437 161.184 192.04C160.496 192.469 159.701 192.694 158.89 192.69V192.69ZM154.952 181.525C154.788 181.523 154.626 181.554 154.475 181.616C154.105 181.823 153.8 182.128 153.592 182.496C153.385 182.865 153.283 183.284 153.297 183.707C153.337 184.669 153.565 185.614 153.967 186.488C154.475 187.788 155.875 190.904 158.027 191.634C158.471 191.776 158.942 191.815 159.403 191.746C159.864 191.677 160.303 191.504 160.687 191.239C162.97 189.868 163.66 184.712 163.995 182.236C164.412 179.191 164.077 175.232 161.965 173.101C161.366 172.537 160.646 172.118 159.859 171.877C159.072 171.636 158.241 171.579 157.428 171.71C157.69 174.02 158.593 176.211 160.037 178.033C160.111 178.125 160.147 178.241 160.138 178.358C160.128 178.475 160.074 178.585 159.986 178.663C159.9 178.744 159.785 178.789 159.666 178.789C159.548 178.789 159.433 178.744 159.347 178.663C158.667 177.993 156.424 177.039 155.419 177.526C155.195 177.627 154.911 177.861 154.982 178.653C155.071 179.044 155.244 179.411 155.49 179.728L156.342 180.987C156.566 181.132 156.755 181.324 156.895 181.551C157.035 181.777 157.124 182.032 157.154 182.296C157.165 182.4 157.141 182.504 157.086 182.592C157.031 182.681 156.948 182.748 156.85 182.784C156.753 182.818 156.647 182.819 156.549 182.786C156.451 182.753 156.368 182.688 156.312 182.601L155.683 181.667C155.455 181.557 155.204 181.508 154.952 181.525Z" fill="#231F20"/>
<path id="Vector_30" d="M131.627 226.632C131.563 226.641 131.498 226.641 131.434 226.632C129.658 225.941 87.6776 209.691 78.2178 203.896C78.1001 203.822 78.016 203.706 77.9837 203.571C77.9515 203.436 77.9735 203.294 78.0452 203.175C78.0806 203.116 78.1275 203.064 78.1831 203.023C78.2388 202.982 78.302 202.953 78.3692 202.937C78.4363 202.921 78.506 202.918 78.5741 202.93C78.6423 202.941 78.7075 202.966 78.7659 203.002C88.1445 208.747 131.373 225.485 131.81 225.647C131.94 225.697 132.045 225.797 132.103 225.924C132.16 226.052 132.164 226.197 132.114 226.327C132.072 226.42 132.003 226.499 131.917 226.553C131.83 226.607 131.729 226.635 131.627 226.632Z" fill="white"/>
<path id="Vector_31" d="M82.6634 160.352C91.9184 160.352 99.4211 153.249 99.4211 144.488C99.4211 135.726 91.9184 128.623 82.6634 128.623C73.4084 128.623 65.9058 135.726 65.9058 144.488C65.9058 153.249 73.4084 160.352 82.6634 160.352Z" fill="white"/>
<path id="Vector_32" d="M82.6634 160.849C73.1427 160.849 65.4084 153.511 65.4084 144.488C65.4084 135.464 73.1529 128.116 82.6634 128.116C92.174 128.116 99.9184 135.464 99.9184 144.488C99.9184 153.511 92.1841 160.849 82.6634 160.849ZM82.6634 129.131C73.701 129.131 66.4234 136.023 66.4234 144.488C66.4234 152.953 73.7111 159.834 82.6634 159.834C91.6157 159.834 98.9034 152.953 98.9034 144.488C98.9034 136.023 91.6259 129.131 82.6634 129.131Z" fill="#231F20"/>
<g id="code-sign1">
<path id="Vector_33" d="M279.658 15.9801L277 14.4576V12.4276L279.658 10.9051L282.316 9.38263V11.7983C281.835 12.0927 281.361 12.3667 280.902 12.6306C280.442 12.8945 279.955 13.1686 279.488 13.4629L280.902 14.2343L282.316 15.0057V17.462L279.658 15.9801Z" fill="#C23B3B"/>
<path id="Vector_34" d="M283.1 18.142L286.253 6.5L287.907 7.2105L284.733 18.9033L283.1 18.142Z" fill="#C23B3B"/>
<path id="Vector_35" d="M291.342 10.9356C292.226 11.4431 293.116 11.9506 294 12.4581V14.4881L291.342 16.0106L288.684 17.5331V15.0463L290.098 14.2749L291.512 13.5035C291.031 13.2092 290.558 12.9351 290.098 12.6712C289.639 12.4073 289.151 12.1333 288.684 11.8389V9.41309L291.342 10.9356Z" fill="#C23B3B"/>
</g>
<path id="cs2" d="M74 140.117C74.347 140.129 74.6899 140.063 74.9741 139.93C75.2198 139.807 75.3339 139.55 75.3339 139.153V137.343C75.3332 137.043 75.3923 136.745 75.5094 136.455C75.6187 136.185 75.8033 135.932 76.0535 135.708C76.3089 135.492 76.6325 135.317 77.0013 135.194C77.4404 135.057 77.9212 134.991 78.4054 135.001H80.38V136.881H79.6867C79.5285 136.871 79.3689 136.889 79.2252 136.935C79.0814 136.98 78.9588 137.05 78.8706 137.138C78.7188 137.316 78.6429 137.518 78.6512 137.722V139.568C78.661 139.802 78.5983 140.034 78.4669 140.251C78.3613 140.419 78.2128 140.573 78.0281 140.707C77.8667 140.822 77.6729 140.915 77.4577 140.981C77.2858 141.041 77.0981 141.079 76.9048 141.092V141.092C77.0957 141.116 77.2814 141.155 77.4577 141.209C77.6722 141.27 77.8661 141.36 78.0281 141.472C78.4505 141.783 78.674 142.191 78.6512 142.61V144.462C78.6402 144.666 78.7162 144.869 78.8706 145.046C78.9578 145.135 79.0799 145.206 79.2237 145.253C79.3675 145.299 79.5276 145.318 79.6867 145.309H80.38V147.189H78.4054C77.9212 147.199 77.4404 147.133 77.0013 146.996C76.6325 146.873 76.3089 146.698 76.0535 146.482C75.805 146.258 75.6206 146.004 75.5094 145.735C75.3928 145.443 75.3338 145.143 75.3339 144.841V143.031C75.3643 142.893 75.3478 142.752 75.2856 142.618C75.2233 142.485 75.1169 142.363 74.9741 142.26C74.6899 142.127 74.347 142.061 74 142.073V140.117Z" fill="#C23B3B"/>
<path id="cs1" d="M92.38 150.068C92.0308 150.056 91.6855 150.122 91.3985 150.255C91.2575 150.359 91.1522 150.481 91.0901 150.615C91.028 150.748 91.0106 150.889 91.0391 151.027V152.839C91.0393 153.141 90.9803 153.442 90.8639 153.734C90.7566 154.004 90.5721 154.258 90.3205 154.482C90.0699 154.7 89.7457 154.877 89.374 154.996C88.9356 155.133 88.4554 155.199 87.9718 155.189H86V153.289H86.7011C86.8585 153.298 87.0166 153.278 87.1585 153.232C87.3005 153.186 87.421 153.114 87.5074 153.026C87.6615 152.849 87.7374 152.646 87.7265 152.442V150.589C87.7176 150.357 87.7802 150.126 87.9105 149.91C88.0177 149.74 88.169 149.584 88.3574 149.449C88.5166 149.337 88.7072 149.248 88.9183 149.186C89.0978 149.132 89.2861 149.093 89.4792 149.069V149.069C89.2836 149.055 89.0934 149.017 88.9183 148.958C88.7057 148.892 88.515 148.799 88.3574 148.683C88.1671 148.551 88.0155 148.396 87.9105 148.227C87.7792 148.01 87.7166 147.777 87.7265 147.543V145.69C87.7347 145.485 87.6589 145.283 87.5074 145.105C87.4199 145.018 87.2989 144.948 87.1571 144.903C87.0152 144.858 86.8577 144.839 86.7011 144.848H86V143.001H87.9718C88.4554 142.991 88.9356 143.057 89.374 143.194C89.7457 143.313 90.0699 143.49 90.3205 143.708C90.5738 143.931 90.7585 144.186 90.8639 144.456C90.9809 144.746 91.0398 145.045 91.0391 145.345V147.157C91.0099 147.296 91.0269 147.438 91.089 147.573C91.1511 147.707 91.2568 147.831 91.3985 147.935C91.6855 148.068 92.0308 148.134 92.38 148.122V150.068Z" fill="#C23B3B"/>
<g id="lines">
<path id="Vector_36" d="M142 14.5C142 16.433 143.567 18 145.5 18C147.433 18 149 16.433 149 14.5C149 12.567 147.433 11 145.5 11C143.567 11 142 12.567 142 14.5Z" fill="#C23B3B"/>
<path id="Vector_37" d="M152 14.5C152 16.433 153.567 18 155.5 18C157.433 18 159 16.433 159 14.5C159 12.567 157.433 11 155.5 11C153.567 11 152 12.567 152 14.5Z" fill="#F7ED0E"/>
<path id="Vector_38" d="M162 14.5C162 16.433 163.567 18 165.5 18C167.433 18 169 16.433 169 14.5C169 12.567 167.433 11 165.5 11C163.567 11 162 12.567 162 14.5Z" fill="#48E121"/>
<g id="even">
<path id="Vector_39" d="M209 82H143C141.343 82 140 83.3431 140 85C140 86.6569 141.343 88 143 88H209C210.657 88 212 86.6569 212 85C212 83.3431 210.657 82 209 82Z" fill="#C23B3B"/>
<path id="Vector_40" opacity="0.51" d="M291.645 57.2722H141.355C140.054 57.2722 139 58.3264 139 59.6269C139 60.9273 140.054 61.9816 141.355 61.9816H291.645C292.946 61.9816 294 60.9273 294 59.6269C294 58.3264 292.946 57.2722 291.645 57.2722Z" fill="#C23B3B"/>
<path id="Vector_41" d="M291.645 47.8533H236.569C235.268 47.8533 234.214 48.9076 234.214 50.208C234.214 51.5085 235.268 52.5627 236.569 52.5627H291.645C292.946 52.5627 294 51.5085 294 50.208C294 48.9076 292.946 47.8533 291.645 47.8533Z" fill="#C23B3B"/>
<path id="Vector_42" d="M240.113 38.4346H155.788C154.465 38.4346 153.393 39.507 153.393 40.8298C153.393 42.1527 154.465 43.2251 155.788 43.2251H240.113C241.436 43.2251 242.509 42.1527 242.509 40.8298C242.509 39.507 241.436 38.4346 240.113 38.4346Z" fill="#C23B3B"/>
<path id="Vector_43" d="M291.218 30H237.395C236.072 30 235 31.0724 235 32.3953C235 33.7181 236.072 34.7905 237.395 34.7905H291.218C292.541 34.7905 293.614 33.7181 293.614 32.3953C293.614 31.0724 292.541 30 291.218 30Z" fill="#C23B3B"/>
</g>
<g id="odd">
<path id="Vector_44" d="M220.5 93H142.5C141.119 93 140 94.1193 140 95.5C140 96.8807 141.119 98 142.5 98H220.5C221.881 98 223 96.8807 223 95.5C223 94.1193 221.881 93 220.5 93Z" fill="#C23B3B"/>
<path id="Vector_45" d="M195.5 73H142.5C141.119 73 140 74.1193 140 75.5C140 76.8807 141.119 78 142.5 78H195.5C196.881 78 198 76.8807 198 75.5C198 74.1193 196.881 73 195.5 73Z" fill="#C23B3B"/>
<path id="Vector_46" opacity="0.51" d="M227.431 47.8533H141.355C140.054 47.8533 139 48.9076 139 50.208C139 51.5085 140.054 52.5627 141.355 52.5627H227.431C228.732 52.5627 229.786 51.5085 229.786 50.208C229.786 48.9076 228.732 47.8533 227.431 47.8533Z" fill="#C23B3B"/>
<path id="Vector_47" d="M291.295 40H258.395C257.072 40 256 41.0724 256 42.3953C256 43.7181 257.072 44.7905 258.395 44.7905H291.295C292.618 44.7905 293.69 43.7181 293.69 42.3953C293.69 41.0724 292.618 40 291.295 40Z" fill="#C23B3B"/>
</g>
<path id="footer" opacity="0.51" d="M289.506 103H145.494C142.46 103 140 105.46 140 108.494C140 111.529 142.46 113.989 145.494 113.989H289.506C292.54 113.989 295 111.529 295 108.494C295 105.46 292.54 103 289.506 103Z" fill="#C23B3B"/>
</g>
<g id="bar-n-sett">
<path id="Vector_48" opacity="0.51" d="M290 66H238C235.791 66 234 67.7909 234 70V94C234 96.2091 235.791 98 238 98H290C292.209 98 294 96.2091 294 94V70C294 67.7909 292.209 66 290 66Z" fill="#C23B3B"/>
<g id="settings-svgrepo-com 1" clip-path="url(#clip1_441_2)">
<g id="Group">
<g id="XMLID_1841_">
<g id="rotor-sm">
<path id="XMLID_1969_" d="M269.837 78.1558L268.442 78.1508C268.229 77.2657 267.776 76.4056 267.098 75.6305L268.093 74.8654C268.448 74.5904 268.455 74.1404 268.099 73.8653L267.105 73.0902C266.75 72.8152 266.168 72.8102 265.813 73.0852L264.812 73.8503C263.817 73.3203 262.706 72.9702 261.563 72.7952L261.569 71.7151C261.569 71.325 261.162 71.005 260.659 71.005L259.244 71C258.74 71 258.327 71.315 258.327 71.7051L258.32 72.7802C257.171 72.9452 256.053 73.2903 255.046 73.8103L254.077 73.0552C253.722 72.7802 253.14 72.7752 252.785 73.0502L251.777 73.8303C251.422 74.1053 251.416 74.5554 251.771 74.8304L252.733 75.5805C252.042 76.3556 251.577 77.2207 251.358 78.1158L250.001 78.1108C249.497 78.1108 249.084 78.4258 249.084 78.8159L249.078 79.911C249.078 80.301 249.484 80.6211 249.988 80.6211L251.332 80.6261C251.545 81.5262 251.997 82.3963 252.682 83.1814L251.732 83.9115C251.377 84.1865 251.37 84.6365 251.726 84.9116L252.72 85.6867C253.076 85.9617 253.657 85.9667 254.012 85.6917L254.962 84.9616C255.969 85.4966 257.093 85.8517 258.249 86.0217L258.243 87.0618C258.243 87.4519 258.65 87.7719 259.154 87.7719L260.568 87.7769C261.072 87.7769 261.485 87.4619 261.485 87.0718L261.492 86.0217C262.648 85.8517 263.765 85.5016 264.773 84.9666L265.735 85.7167C266.091 85.9917 266.672 85.9967 267.027 85.7217L268.061 84.9516C268.416 84.6765 268.422 84.2265 268.067 83.9515L267.098 83.1964C267.783 82.4213 268.235 81.5562 268.448 80.6661L269.837 80.6711C270.341 80.6711 270.754 80.3561 270.754 79.966L270.761 78.8709C270.754 78.4758 270.347 78.1558 269.837 78.1558ZM259.922 84.1165C256.551 84.1165 253.818 82.0012 253.818 79.3909C253.818 76.7807 256.551 74.6654 259.922 74.6654C263.294 74.6654 266.026 76.7807 266.026 79.3909C266.026 82.0012 263.287 84.1165 259.922 84.1165Z" fill="white"/>
<path id="XMLID_1839_" d="M259.922 76.3607C257.759 76.3607 256.008 77.7158 256.008 79.391C256.008 81.0662 257.759 82.4213 259.922 82.4213C262.086 82.4213 263.837 81.0662 263.837 79.391C263.837 77.7158 262.08 76.3607 259.922 76.3607ZM259.922 78.4059C259.218 78.4059 258.65 78.8509 258.65 79.391C258.65 79.641 258.392 79.841 258.069 79.841C257.746 79.841 257.487 79.641 257.487 79.391C257.487 78.3459 258.585 77.5008 259.929 77.5008C260.252 77.5008 260.51 77.7008 260.51 77.9508C260.51 78.2009 260.245 78.4059 259.922 78.4059Z" fill="white"/>
</g>
<g id="rotor-lg">
<path id="XMLID_1840_" d="M272.763 87.6519C271.484 87.6519 270.438 88.4569 270.438 89.4521C270.438 89.6921 270.69 89.8821 270.993 89.8821C271.297 89.8821 271.549 89.6871 271.549 89.4521C271.549 88.932 272.091 88.512 272.763 88.512C273.073 88.512 273.318 88.3169 273.318 88.0819C273.318 87.8419 273.066 87.6519 272.763 87.6519Z" fill="white"/>
<path id="XMLID_1975_" d="M279.493 90.7372L278.634 90.4522C278.809 89.8371 278.821 89.192 278.654 88.5519L279.526 88.2819C279.848 88.1819 280.01 87.8969 279.874 87.6468L279.513 86.9468C279.383 86.6967 279.015 86.5717 278.692 86.6767L277.814 86.9518C277.362 86.4067 276.774 85.9517 276.102 85.6066L276.477 84.9265C276.612 84.6765 276.464 84.3915 276.147 84.2865L275.25 83.9864C274.927 83.8814 274.558 83.9964 274.423 84.2415L274.042 84.9265C273.254 84.7915 272.427 84.7815 271.613 84.9065L271.251 84.2115C271.122 83.9614 270.754 83.8364 270.431 83.9414L269.527 84.2215C269.204 84.3215 269.042 84.6065 269.178 84.8565L269.54 85.5516C268.836 85.8966 268.248 86.3467 267.796 86.8668L266.911 86.5717C266.588 86.4667 266.22 86.5817 266.084 86.8268L265.697 87.5218C265.561 87.7719 265.71 88.0569 266.026 88.1619L266.905 88.4519C266.73 89.062 266.711 89.7021 266.866 90.3421L265.987 90.6172C265.664 90.7172 265.503 91.0022 265.639 91.2522L266 91.9523C266.129 92.2024 266.498 92.3274 266.821 92.2224L267.693 91.9523C268.145 92.5024 268.726 92.9624 269.398 93.3125L269.03 93.9776C268.894 94.2276 269.042 94.5126 269.359 94.6176L270.257 94.9177C270.58 95.0227 270.948 94.9077 271.084 94.6626L271.452 94.0026C272.246 94.1426 273.079 94.1526 273.913 94.0276L274.255 94.6926C274.384 94.9427 274.752 95.0677 275.075 94.9627L275.979 94.6826C276.302 94.5826 276.464 94.2976 276.328 94.0476L275.986 93.3825C276.696 93.0324 277.291 92.5724 277.743 92.0523L278.595 92.3374C278.918 92.4424 279.287 92.3274 279.422 92.0823L279.81 91.3873C279.965 91.1322 279.816 90.8472 279.493 90.7372ZM272.763 92.3324C270.709 92.3324 269.036 91.0422 269.036 89.447C269.036 87.8569 270.702 86.5617 272.763 86.5617C274.823 86.5617 276.49 87.8519 276.49 89.447C276.483 91.0422 274.817 92.3324 272.763 92.3324Z" fill="white"/>
</g>
</g>
</g>
</g>
</g>
<g id="head">
<path id="Vector_49" d="M62.7635 79.386C61.3842 79.5516 59.9866 79.3092 58.7435 78.6888C57.5005 78.0684 56.4667 77.0971 55.7699 75.8952C55.0731 74.6934 54.7439 73.3136 54.8232 71.9266C54.9024 70.5396 55.3865 69.2062 56.2156 68.0915C52.2501 66.5105 49.9625 62.0363 50.0237 57.7744C50.085 53.5125 52.1226 49.5332 54.7491 46.1228C56.9103 43.3364 61.4867 40.5652 64.9085 39.7252C65.5593 39.6258 66.1879 39.414 66.7662 39.0994C67.2158 38.7466 67.5993 38.317 67.8991 37.8305C70.254 34.4749 68.7255 38.4286 72.5498 36.9271C76.374 35.4257 87.7818 33.4826 90.5531 36.5187C91.796 35.32 89.9568 36.2081 91.6603 35.9256C93.3638 35.6431 96.5102 37.2538 98.0734 37.9871C99.6367 38.7205 100.94 39.9113 101.812 41.4018C102.684 42.8924 102.012 41.0636 101.885 42.7856C104.648 43.0468 107.281 44.0857 109.478 45.7821C111.676 47.4784 110.884 48.3171 111.836 50.9246C113.565 56.1802 113.05 60.092 108.266 62.8735C107.714 63.1972 107.055 63.6179 107.108 64.2453C107.184 64.6217 107.372 64.9662 107.648 65.2334C109.347 67.4109 108.728 70.7263 107.031 72.8683C105.335 75.0104 102.695 76.2363 100.155 77.4061C100.762 77.9546 101.186 78.6772 101.368 79.4752C101.549 80.2733 101.481 81.108 101.171 81.8656C100.496 83.3851 99.3906 84.673 97.9905 85.5694C92.5456 89.5036 85.5124 88.7338 79.2046 89.1965C73.3827 89.6236 67.4 86.207 63.3172 82.1927C62.5252 81.4313 61.8506 80.003 62.7635 79.386Z" fill="#C23B3B"/>
<path id="Vector_50" d="M53.2022 48.2787C51.1147 51.5205 50.0549 54.7024 50.0155 57.7769L50.0155 57.7777C49.9518 62.1715 52.2758 66.209 55.6724 67.8542L56.1845 68.1022L55.8728 68.5781C55.1726 69.647 54.7752 70.8856 54.7226 72.1623C54.6701 73.4389 54.9644 74.706 55.5743 75.8288C56.1843 76.9516 57.087 77.8881 58.1866 78.5389C59.2862 79.1897 60.5416 79.5305 61.8194 79.5249L62.375 79.5225L62.3211 80.0546L62.326 80.0782L62.3272 80.1231C62.338 80.5266 62.4306 80.9238 62.5994 81.2905C62.7683 81.6572 63.0098 81.9858 63.3094 82.2563L63.3162 82.2625L63.3228 82.2689C68.2447 87.053 74.1238 89.6271 79.2236 89.2744C80.1006 89.1874 81.0293 89.1527 81.9333 89.1189C82.3754 89.1024 82.8116 89.0861 83.2329 89.064L83.2384 89.0638L83.2439 89.0635L83.2493 89.0632L83.2548 89.0629L83.2603 89.0626L83.2658 89.0623L83.2712 89.062L83.2767 89.0618L83.2822 89.0615L83.2877 89.0612L83.2932 89.0609L83.2986 89.0606L83.3041 89.0603L83.3096 89.06L83.3151 89.0597L83.3206 89.0595L83.3261 89.0592L83.3316 89.0589L83.3371 89.0586L83.3426 89.0583L83.3481 89.058L83.3536 89.0577L83.3591 89.0574L83.3646 89.0571L83.3701 89.0569L83.3756 89.0566L83.3811 89.0563L83.3866 89.056L83.3922 89.0557L83.3977 89.0554L83.4032 89.0551L83.4087 89.0548L83.4142 89.0545L83.4198 89.0543L83.4253 89.054L83.4308 89.0537L83.4364 89.0534L83.4419 89.0531L83.4474 89.0528L83.4529 89.0525L83.4585 89.0522L83.464 89.0519L83.4696 89.0516L83.4751 89.0514L83.4806 89.0511L83.4862 89.0508L83.4917 89.0505L83.4973 89.0502L83.5028 89.0499L83.5084 89.0496L83.5139 89.0493L83.5195 89.049L83.5251 89.0487L83.5306 89.0484L83.5362 89.0482L83.5417 89.0479L83.5473 89.0476L83.5529 89.0473L83.5584 89.047L83.564 89.0467L83.5696 89.0464L83.5751 89.0461L83.5807 89.0458L83.5863 89.0455L83.5919 89.0452L83.5974 89.0449L83.603 89.0446L83.6086 89.0444L83.6142 89.0441L83.6198 89.0438L83.6254 89.0435L83.6309 89.0432L83.6365 89.0429L83.6421 89.0426L83.6477 89.0423L83.6533 89.042L83.6589 89.0417L83.6645 89.0414L83.6701 89.0411L83.6757 89.0408L83.6813 89.0405L83.6869 89.0403L83.6925 89.04L83.6981 89.0397L83.7037 89.0394L83.7093 89.0391L83.7149 89.0388L83.7205 89.0385L83.7262 89.0382L83.7318 89.0379L83.7374 89.0376L83.743 89.0373L83.7486 89.037L83.7543 89.0367L83.7599 89.0364L83.7655 89.0361L83.7711 89.0358L83.7768 89.0355L83.7824 89.0352L83.788 89.035L83.7937 89.0347L83.7993 89.0344L83.8049 89.0341L83.8106 89.0338L83.8162 89.0335L83.8218 89.0332L83.8275 89.0329L83.8331 89.0326L83.8388 89.0323L83.8444 89.032L83.8501 89.0317L83.8557 89.0314L83.8614 89.0311L83.867 89.0308L83.8727 89.0305L83.8783 89.0302L83.884 89.0299L83.8896 89.0296L83.8953 89.0293L83.9009 89.029L83.9066 89.0287L83.9123 89.0284L83.9179 89.0281L83.9236 89.0278L83.9293 89.0276L83.9349 89.0273L83.9406 89.027L83.9463 89.0267L83.9519 89.0264L83.9576 89.0261L83.9633 89.0258L83.969 89.0255L83.9746 89.0252L83.9803 89.0249L83.986 89.0246L83.9917 89.0243L83.9974 89.024L84.0031 89.0237L84.0087 89.0234L84.0144 89.0231L84.0201 89.0228L84.0258 89.0225L84.0315 89.0222L84.0372 89.0219L84.0429 89.0216L84.0486 89.0213L84.0543 89.021L84.06 89.0207L84.0657 89.0204L84.0714 89.0201L84.0771 89.0198L84.0828 89.0195L84.0885 89.0192L84.0942 89.0189L84.0999 89.0186L84.1056 89.0183L84.1113 89.018L84.117 89.0177L84.1227 89.0174L84.1285 89.0171L84.1342 89.0168L84.1399 89.0165L84.1456 89.0162L84.1513 89.0159L84.1571 89.0156L84.1628 89.0153L84.1685 89.015L84.1742 89.0147L84.1799 89.0144L84.1857 89.0141L84.1914 89.0138L84.1971 89.0135L84.2029 89.0132L84.2086 89.0129L84.2143 89.0126L84.2201 89.0123L84.2258 89.012L84.2315 89.0117L84.2373 89.0114L84.243 89.0111L84.2487 89.0108L84.2545 89.0105L84.2602 89.0102L84.266 89.0099L84.2717 89.0096L84.2775 89.0093L84.2832 89.009L84.289 89.0087L84.2947 89.0084L84.3005 89.0081L84.3062 89.0078L84.312 89.0075L84.3177 89.0072L84.3235 89.0069L84.3292 89.0066L84.335 89.0063L84.3407 89.006L84.3465 89.0057L84.3523 89.0054L84.358 89.0051L84.3638 89.0048L84.3696 89.0045L84.3753 89.0042L84.3811 89.0039L84.3869 89.0036L84.3926 89.0033L84.3984 89.003L84.4042 89.0027L84.4099 89.0024L84.4157 89.0021L84.4215 89.0018L84.4273 89.0015L84.433 89.0011L84.4388 89.0008L84.4446 89.0005L84.4504 89.0002L84.4562 88.9999L84.4619 88.9996L84.4677 88.9993L84.4735 88.999L84.4793 88.9987L84.4851 88.9984L84.4909 88.9981L84.4966 88.9978L84.5024 88.9975L84.5082 88.9972L84.514 88.9969L84.5198 88.9966L84.5256 88.9963L84.5314 88.996L84.5372 88.9957L84.543 88.9954L84.5488 88.9951L84.5546 88.9948L84.5604 88.9945L84.5662 88.9942L84.572 88.9939L84.5778 88.9936L84.5836 88.9933L84.5894 88.993L84.5952 88.9927L84.601 88.9923L84.6068 88.992L84.6126 88.9917L84.6184 88.9914L84.6242 88.9911L84.6301 88.9908L84.6359 88.9905L84.6417 88.9902L84.6475 88.9899L84.6533 88.9896L84.6591 88.9893L84.6649 88.989L84.6708 88.9887L84.6766 88.9884L84.6824 88.9881L84.6882 88.9878L84.694 88.9875L84.6999 88.9872L84.7057 88.9869L84.7115 88.9866L84.7173 88.9863L84.7232 88.9859L84.729 88.9856L84.7348 88.9853L84.7407 88.985L84.7465 88.9847L84.7523 88.9844L84.7581 88.9841L84.764 88.9838L84.7698 88.9835L84.7756 88.9832L84.7815 88.9829L84.7873 88.9826L84.7932 88.9823L84.799 88.982L84.8048 88.9817L84.8107 88.9814L84.8165 88.9811L84.8224 88.9807L84.8282 88.9804L84.834 88.9801L84.8399 88.9798L84.8457 88.9795L84.8516 88.9792L84.8574 88.9789L84.8633 88.9786L84.8691 88.9783L84.875 88.978L84.8808 88.9777L84.8867 88.9774L84.8925 88.9771L84.8984 88.9768L84.9042 88.9765L84.9101 88.9761L84.9159 88.9758L84.9218 88.9755L84.9276 88.9752L84.9335 88.9749L84.9393 88.9746L84.9452 88.9743L84.9511 88.974L84.9569 88.9737L84.9628 88.9734L84.9686 88.9731L84.9745 88.9728L84.9804 88.9725L84.9862 88.9722L84.9921 88.9719L84.998 88.9715L85.0038 88.9712L85.0097 88.9709L85.0156 88.9706L85.0214 88.9703L85.0273 88.97L85.0332 88.9697L85.039 88.9694L85.0449 88.9691L85.0508 88.9688L85.0566 88.9685L85.0625 88.9682L85.0684 88.9679L85.0743 88.9675L85.0801 88.9672L85.086 88.9669L85.0919 88.9666L85.0978 88.9663L85.1036 88.966L85.1095 88.9657L85.1154 88.9654L85.1213 88.9651L85.1272 88.9648L85.133 88.9645L85.1389 88.9642L85.1448 88.9638L85.1507 88.9635L85.1566 88.9632L85.1625 88.9629L85.1683 88.9626L85.1742 88.9623L85.1801 88.962L85.186 88.9617L85.1919 88.9614L85.1978 88.9611L85.2037 88.9608L85.2096 88.9605L85.2154 88.9601L85.2213 88.9598L85.2272 88.9595L85.2331 88.9592L85.239 88.9589L85.2449 88.9586L85.2508 88.9583L85.2567 88.958L85.2626 88.9577L85.2685 88.9574L85.2744 88.9571L85.2803 88.9567L85.2862 88.9564L85.2921 88.9561L85.298 88.9558L85.3039 88.9555L85.3098 88.9552L85.3157 88.9549L85.3216 88.9546L85.3275 88.9543L85.3334 88.954L85.3393 88.9537L85.3452 88.9533L85.3511 88.953L85.357 88.9527L85.3629 88.9524L85.3688 88.9521L85.3747 88.9518L85.3806 88.9515L85.3865 88.9512L85.3924 88.9509L85.3983 88.9506L85.4042 88.9503L85.4101 88.9499L85.416 88.9496L85.4219 88.9493L85.4278 88.949L85.4337 88.9487L85.4397 88.9484L85.4456 88.9481L85.4515 88.9478L85.4574 88.9475L85.4633 88.9472L85.4692 88.9468L85.4751 88.9465L85.481 88.9462L85.4869 88.9459L85.4929 88.9456L85.4988 88.9453L85.5047 88.945L85.5106 88.9447L85.5165 88.9444L85.5224 88.9441L85.5283 88.9437L85.5343 88.9434L85.5402 88.9431L85.5461 88.9428L85.552 88.9425L85.5579 88.9422L85.5639 88.9419L85.5698 88.9416L85.5757 88.9413L85.5816 88.941L85.5875 88.9406L85.5935 88.9403L85.5994 88.94L85.6053 88.9397L85.6112 88.9394L85.6171 88.9391L85.6231 88.9388L85.629 88.9385L85.6349 88.9382L85.6408 88.9379L85.6468 88.9375L85.6527 88.9372L85.6586 88.9369L85.6645 88.9366L85.6705 88.9363L85.6764 88.936L85.6823 88.9357L85.6882 88.9354L85.6942 88.9351L85.7001 88.9347L85.706 88.9344L85.7119 88.9341L85.7179 88.9338L85.7238 88.9335L85.7297 88.9332L85.7356 88.9329L85.7416 88.9326L85.7475 88.9323L85.7534 88.932L85.7594 88.9316L85.7653 88.9313L85.7712 88.931L85.7772 88.9307L85.7831 88.9304L85.789 88.9301L85.7949 88.9298L85.8009 88.9295L85.8068 88.9292L85.8127 88.9288L85.8187 88.9285L85.8246 88.9282L85.8305 88.9279L85.8365 88.9276L85.8424 88.9273L85.8483 88.927L85.8543 88.9267L85.8602 88.9264L85.8661 88.926L85.8721 88.9257L85.878 88.9254L85.8839 88.9251L85.8899 88.9248L85.8958 88.9245L85.9017 88.9242L85.9077 88.9239L85.9136 88.9236L85.9195 88.9232L85.9255 88.9229L85.9314 88.9226L85.9373 88.9223L85.9433 88.922L85.9492 88.9217L85.9552 88.9214L85.9611 88.9211L85.967 88.9208L85.973 88.9204L85.9789 88.9201L85.9848 88.9198L85.9908 88.9195L85.9967 88.9192L86.0026 88.9189L86.0086 88.9186L86.0145 88.9183L86.0205 88.918L86.0264 88.9176L86.0323 88.9173L86.0383 88.917L86.0442 88.9167L86.0502 88.9164L86.0561 88.9161L86.062 88.9158L86.068 88.9155L86.0739 88.9152L86.0798 88.9148L86.0858 88.9145L86.0917 88.9142L86.0977 88.9139L86.1036 88.9136L86.1095 88.9133L86.1155 88.913L86.1214 88.9127L86.1274 88.9124L86.1333 88.912L86.1392 88.9117L86.1452 88.9114L86.1511 88.9111L86.157 88.9108L86.163 88.9105L86.1689 88.9102L86.1749 88.9099L86.1808 88.9096L86.1867 88.9092L86.1927 88.9089C90.4237 88.6872 94.5357 88.1127 98.0443 85.573L98.0559 85.5646L98.068 85.5569C99.4528 84.6709 100.542 83.3924 101.197 81.8847C101.383 81.3971 101.477 80.8808 101.476 80.3619C101.468 80.8678 101.362 81.3703 101.163 81.8414L101.16 81.848L101.16 81.848C100.491 83.3648 99.3847 84.6474 97.9826 85.5316C93.6893 88.6293 88.351 88.802 83.3471 88.9638L83.2431 88.9672L83.2426 88.9672L83.237 88.9675L83.2314 88.9678L83.2259 88.9681L83.2203 88.9684L83.2147 88.9687L83.2091 88.969L83.2035 88.9693L83.1979 88.9695L83.1923 88.9698L83.1867 88.9701L83.1812 88.9704L83.1756 88.9707L83.17 88.971L83.1644 88.9713L83.1588 88.9716L83.1532 88.9719L83.1476 88.9722L83.142 88.9725L83.1364 88.9728L83.1308 88.9731L83.1253 88.9734L83.1197 88.9736L83.1141 88.9739L83.1085 88.9742L83.1029 88.9745L83.0973 88.9748L83.0917 88.9751L83.0861 88.9754L83.0805 88.9757L83.0749 88.976L83.0693 88.9763L83.0637 88.9766L83.0581 88.9769L83.0525 88.9772L83.0469 88.9775L83.0413 88.9778L83.0357 88.978L83.0301 88.9783L83.0245 88.9786L83.0189 88.9789L83.0133 88.9792L83.0077 88.9795L83.0021 88.9798L82.9965 88.9801L82.9909 88.9804L82.9853 88.9807L82.9797 88.981L82.9741 88.9813L82.9685 88.9816L82.9629 88.9819L82.9573 88.9822L82.9517 88.9824L82.9461 88.9827L82.9405 88.983L82.9349 88.9833L82.9293 88.9836L82.9237 88.9839L82.918 88.9842L82.9124 88.9845L82.9068 88.9848L82.9012 88.9851L82.8956 88.9854L82.89 88.9857L82.8844 88.986L82.8788 88.9863L82.8732 88.9866L82.8676 88.9869L82.8619 88.9872L82.8563 88.9874L82.8507 88.9877L82.8451 88.988L82.8395 88.9883L82.8339 88.9886L82.8283 88.9889L82.8227 88.9892L82.817 88.9895L82.8114 88.9898L82.8058 88.9901L82.8002 88.9904L82.7946 88.9907L82.789 88.991L82.7833 88.9913L82.7777 88.9916L82.7721 88.9919L82.7665 88.9922L82.7609 88.9924L82.7553 88.9927L82.7496 88.993L82.744 88.9933L82.7384 88.9936L82.7328 88.9939L82.7272 88.9942L82.7215 88.9945L82.7159 88.9948L82.7103 88.9951L82.7047 88.9954L82.6991 88.9957L82.6934 88.996L82.6878 88.9963L82.6822 88.9966L82.6766 88.9969L82.6709 88.9972L82.6653 88.9975L82.6597 88.9978L82.6541 88.998L82.6485 88.9983L82.6428 88.9986L82.6372 88.9989L82.6316 88.9992L82.626 88.9995L82.6203 88.9998L82.6147 89.0001L82.6091 89.0004L82.6034 89.0007L82.5978 89.001L82.5922 89.0013L82.5866 89.0016L82.5809 89.0019L82.5753 89.0022L82.5697 89.0025L82.564 89.0028L82.5584 89.0031L82.5528 89.0034L82.5472 89.0036L82.5415 89.0039L82.5359 89.0042L82.5303 89.0045L82.5246 89.0048L82.519 89.0051L82.5134 89.0054L82.5077 89.0057L82.5021 89.006L82.4965 89.0063L82.4908 89.0066L82.4852 89.0069L82.4796 89.0072L82.4739 89.0075L82.4683 89.0078L82.4627 89.0081L82.457 89.0084L82.4514 89.0087L82.4458 89.009L82.4401 89.0093L82.4345 89.0096L82.4289 89.0098L82.4232 89.0101L82.4176 89.0104L82.412 89.0107L82.4063 89.011L82.4007 89.0113L82.395 89.0116L82.3894 89.0119L82.3838 89.0122L82.3781 89.0125L82.3725 89.0128L82.3668 89.0131L82.3612 89.0134L82.3556 89.0137L82.3499 89.014L82.3443 89.0143L82.3387 89.0146L82.333 89.0149L82.3274 89.0152L82.3217 89.0155L82.3161 89.0158L82.3104 89.0161L82.3048 89.0164L82.2992 89.0166L82.2935 89.0169L82.2879 89.0172L82.2822 89.0175L82.2766 89.0178L82.271 89.0181L82.2653 89.0184L82.2597 89.0187L82.254 89.019L82.2484 89.0193L82.2427 89.0196L82.2371 89.0199L82.2314 89.0202L82.2258 89.0205L82.2202 89.0208L82.2145 89.0211L82.2089 89.0214L82.2032 89.0217L82.1976 89.022L82.1919 89.0223L82.1863 89.0226L82.1806 89.0229L82.175 89.0232L82.1693 89.0235L82.1637 89.0237L82.1581 89.024L82.1524 89.0243L82.1468 89.0246L82.1411 89.0249L82.1355 89.0252L82.1298 89.0255L82.1242 89.0258L82.1185 89.0261L82.1129 89.0264L82.1072 89.0267L82.1016 89.027L82.0959 89.0273L82.0903 89.0276L82.0846 89.0279L82.079 89.0282L82.0733 89.0285L82.0677 89.0288L82.062 89.0291L82.0564 89.0294L82.0507 89.0297L82.0451 89.03L82.0394 89.0303L82.0338 89.0306L82.0281 89.0309L82.0225 89.0311L82.0168 89.0314L82.0112 89.0317L82.0055 89.032L81.9999 89.0323L81.9942 89.0326L81.9886 89.0329L81.9829 89.0332L81.9772 89.0335L81.9716 89.0338L81.9659 89.0341L81.9603 89.0344L81.9546 89.0347L81.949 89.035L81.9433 89.0353L81.9377 89.0356L81.932 89.0359L81.9264 89.0362L81.9207 89.0365L81.9151 89.0368L81.9094 89.0371L81.9037 89.0374L81.8981 89.0377L81.8924 89.038L81.8868 89.0383L81.8811 89.0386L81.8755 89.0389L81.8698 89.0391L81.8642 89.0394L81.8585 89.0397L81.8528 89.04L81.8472 89.0403L81.8415 89.0406L81.8359 89.0409L81.8302 89.0412L81.8246 89.0415L81.8189 89.0418L81.8132 89.0421L81.8076 89.0424L81.8019 89.0427L81.7963 89.043L81.7906 89.0433L81.785 89.0436L81.7793 89.0439L81.7736 89.0442L81.768 89.0445L81.7623 89.0448L81.7567 89.0451L81.751 89.0454L81.7454 89.0457L81.7397 89.046L81.734 89.0463L81.7284 89.0466L81.7227 89.0469L81.7171 89.0472L81.7114 89.0474L81.7057 89.0477L81.7001 89.048L81.6944 89.0483L81.6888 89.0486L81.6831 89.0489L81.6775 89.0492L81.6718 89.0495L81.6661 89.0498L81.6605 89.0501L81.6548 89.0504L81.6492 89.0507L81.6435 89.051L81.6378 89.0513L81.6322 89.0516L81.6265 89.0519L81.6209 89.0522L81.6152 89.0525L81.6095 89.0528L81.6039 89.0531L81.5982 89.0534L81.5926 89.0537L81.5869 89.054L81.5812 89.0543L81.5756 89.0546L81.5699 89.0549L81.5642 89.0552L81.5586 89.0555L81.5529 89.0558L81.5473 89.0561L81.5416 89.0563L81.5359 89.0566L81.5303 89.0569L81.5246 89.0572L81.519 89.0575L81.5133 89.0578L81.5076 89.0581L81.502 89.0584L81.4963 89.0587L81.4907 89.059L81.485 89.0593L81.4793 89.0596L81.4737 89.0599L81.468 89.0602L81.4623 89.0605L81.4567 89.0608L81.451 89.0611L81.4454 89.0614L81.4397 89.0617L81.434 89.062L81.4284 89.0623L81.4227 89.0626L81.4171 89.0629L81.4114 89.0632L81.4057 89.0635L81.4001 89.0638L81.3944 89.0641L81.3887 89.0644L81.3831 89.0647L81.3774 89.065L81.3718 89.0652L81.3661 89.0655L81.3604 89.0658L81.3548 89.0661L81.3491 89.0664L81.3435 89.0667L81.3378 89.067L81.3321 89.0673L81.3265 89.0676L81.3208 89.0679L81.3151 89.0682L81.3095 89.0685L81.3038 89.0688L81.2982 89.0691L81.2925 89.0694L81.2868 89.0697L81.2812 89.07L81.2755 89.0703L81.2698 89.0706L81.2642 89.0709L81.2585 89.0712L81.2529 89.0715L81.2472 89.0718L81.2415 89.0721L81.2359 89.0724L81.2302 89.0727L81.2245 89.073L81.2189 89.0733L81.2132 89.0736L81.2076 89.0739L81.2019 89.0742L81.1962 89.0744L81.1906 89.0747L81.1849 89.075L81.1793 89.0753L81.1736 89.0756L81.1679 89.0759L81.1623 89.0762L81.1566 89.0765L81.151 89.0768L81.1453 89.0771L81.1396 89.0774L81.134 89.0777L81.1283 89.078L81.1226 89.0783L81.117 89.0786L81.1113 89.0789L81.1057 89.0792L81.1 89.0795L81.0943 89.0798L81.0887 89.0801L81.083 89.0804L81.0774 89.0807L81.0717 89.081L81.066 89.0813L81.0604 89.0816L81.0547 89.0819L81.0491 89.0822L81.0434 89.0825L81.0377 89.0828L81.0321 89.0831L81.0264 89.0833L81.0208 89.0836L81.0151 89.0839L81.0094 89.0842L81.0038 89.0845L80.9981 89.0848L80.9925 89.0851L80.9868 89.0854L80.9811 89.0857L80.9755 89.086L80.9698 89.0863L80.9642 89.0866L80.9585 89.0869L80.9528 89.0872L80.9472 89.0875L80.9415 89.0878L80.9359 89.0881L80.9302 89.0884L80.9245 89.0887L80.9189 89.089L80.9132 89.0893L80.9076 89.0896L80.9019 89.0899L80.8963 89.0902L80.8906 89.0905L80.8849 89.0908L80.8793 89.0911L80.8736 89.0914L80.868 89.0917L80.8623 89.0919L80.8566 89.0922L80.851 89.0925L80.8453 89.0928L80.8397 89.0931L80.834 89.0934L80.8284 89.0937L80.8227 89.094L80.8171 89.0943L80.8114 89.0946L80.8057 89.0949L80.8001 89.0952L80.7944 89.0955L80.7888 89.0958L80.7831 89.0961L80.7775 89.0964L80.7718 89.0967L80.7661 89.097L80.7605 89.0973L80.7548 89.0976L80.7492 89.0979L80.7435 89.0982L80.7379 89.0985L80.7322 89.0988L80.7266 89.0991L80.7209 89.0994L80.7153 89.0997L80.7096 89.1L80.7039 89.1002L80.6983 89.1005L80.6926 89.1008L80.687 89.1011L80.6813 89.1014L80.6757 89.1017L80.67 89.102L80.6644 89.1023L80.6587 89.1026L80.6531 89.1029L80.6474 89.1032L80.6418 89.1035L80.6361 89.1038L80.6305 89.1041L80.6248 89.1044L80.6192 89.1047L80.6135 89.105L80.6079 89.1053L80.6022 89.1056L80.5966 89.1059L80.5909 89.1062L80.5853 89.1065L80.5796 89.1068L80.574 89.1071L80.5683 89.1074L80.5627 89.1077L80.557 89.1079L80.5514 89.1082L80.5457 89.1085L80.5401 89.1088L80.5344 89.1091L80.5288 89.1094L80.5231 89.1097L80.5175 89.11L80.5118 89.1103L80.5062 89.1106L80.5005 89.1109L80.4949 89.1112L80.4892 89.1115L80.4836 89.1118L80.4779 89.1121L80.4723 89.1124L80.4666 89.1127L80.461 89.113L80.4553 89.1133L80.4497 89.1136L80.4441 89.1139L80.4384 89.1142L80.4328 89.1145L80.4271 89.1148L80.4215 89.1151L80.4158 89.1153L80.4102 89.1156L80.4045 89.1159L80.3989 89.1162L80.3933 89.1165L80.3876 89.1168L80.382 89.1171L80.3763 89.1174L80.3707 89.1177L80.365 89.118L80.3594 89.1183L80.355 89.1185L79.2164 89.1681C74.0833 89.5395 68.1522 86.8914 63.3535 82.1835C62.7747 81.6711 62.4169 80.954 62.3559 80.183L62.3537 80.1554L62.3546 80.1277C62.3594 79.974 62.4021 79.8238 62.4788 79.6905C62.5529 79.5615 62.6567 79.4522 62.7814 79.3714C62.7823 79.3705 62.783 79.3695 62.7834 79.3682C62.7839 79.3666 62.7839 79.3649 62.7833 79.3633L62.7802 79.355L62.7705 79.3565L62.7705 79.3563C61.3879 79.5369 59.9827 79.3044 58.7319 78.6882C57.4811 78.072 56.4406 77.0995 55.7413 75.8931C55.0419 74.6868 54.7151 73.3006 54.8019 71.9089C54.8887 70.5173 55.3852 69.1824 56.229 68.0723L56.2311 68.0695C56.2299 68.0686 56.2286 68.0678 56.2271 68.0672C52.4695 66.5548 49.9741 62.2996 50.0409 57.7401L53.2022 48.2787ZM53.2022 48.2787C51.1577 51.4699 50.085 54.6454 50.0409 57.7399L53.2022 48.2787ZM101.807 43.9399C101.675 43.9267 101.553 43.8622 101.468 43.7602C101.383 43.6583 101.341 43.527 101.352 43.3946C101.424 42.3822 100.902 41.8818 100.301 41.3055C99.943 40.9617 99.5564 40.5909 99.2509 40.0684C98.433 38.6697 97.2116 37.5507 95.7468 36.8583C95.0448 36.5264 94.3025 36.3 93.5438 36.1822L101.807 43.9399ZM101.807 43.9399L101.857 43.4423C101.857 43.4423 101.857 43.4423 101.857 43.4423C101.856 43.4422 101.855 43.4421 101.854 43.442L101.807 43.9399ZM70.1881 38.2923C70.7299 37.5974 71.357 37.139 72.0487 36.8431C71.431 37.1572 70.8303 37.607 70.2614 38.2408L70.2319 38.2737C70.2267 38.2762 70.2204 38.2792 70.2126 38.2825C70.2051 38.2857 70.1969 38.289 70.1881 38.2923ZM70.2501 38.2634C70.2501 38.2634 70.2495 38.2639 70.2482 38.2647C70.2494 38.2638 70.2501 38.2634 70.2501 38.2634ZM65.6328 39.2277C65.6862 39.2231 65.7411 39.2185 65.7974 39.214C65.6205 39.2696 65.4348 39.3256 65.2475 39.3802C64.9327 39.4721 64.6211 39.5578 64.3451 39.6297C64.5477 39.5466 64.7425 39.4438 64.9266 39.3225C64.9279 39.3221 64.9292 39.3218 64.9306 39.3214C64.9609 39.3131 65.0091 39.3027 65.0785 39.2913C65.2169 39.2687 65.4045 39.2477 65.6328 39.2277ZM64.9092 39.328C64.9092 39.328 64.9101 39.3276 64.9122 39.3269C64.9103 39.3277 64.9092 39.3281 64.9092 39.328ZM81.3676 36.239C80.7894 36.4652 80.1471 36.5347 79.4367 36.5211L81.3676 36.239ZM92.4118 36.6728C92.4231 36.6397 92.4239 36.6117 92.4154 36.5879C92.3841 36.5875 92.3527 36.5872 92.3214 36.5872L92.4118 36.6728Z" fill="#231F20" stroke="#C23B3B"/>
<path id="Vector_51" d="M90.0354 93.3856L88.7476 107.601C88.7476 107.601 84.6899 115.122 75.6072 111.898C66.5245 108.674 65.9957 101.882 65.9957 101.882L68.8461 75.5911C68.8461 75.5911 74.5448 74.0057 77.6452 57.7233C77.6452 57.7233 89.4552 63.6966 101.02 66.1804C101.02 66.1804 100.856 77.6031 99.1885 84.7646C97.5188 91.6924 90.173 93.297 90.0354 93.3856Z" fill="#96865E" fill-opacity="0.99"/>
<path id="Vector_52" d="M80.4518 113.189C78.7267 113.259 77.0051 112.983 75.3883 112.377C66.0682 109.085 65.4642 102.215 65.4387 101.922L68.3147 75.5377C68.3292 75.4207 68.3804 75.3112 68.4609 75.2251C68.5479 75.1392 73.9272 73.4422 76.9747 57.5081C76.9975 57.41 77.0478 57.3205 77.1197 57.2501C77.1917 57.1797 77.2823 57.1314 77.3808 57.1107C77.4791 57.0916 77.5809 57.1019 77.6734 57.1405C77.7658 57.179 77.8448 57.2441 77.9003 57.3274C77.9889 57.4651 89.9006 63.2769 101.095 65.6784C101.211 65.7028 101.314 65.7669 101.388 65.8595C101.461 65.9522 101.5 66.0676 101.498 66.1859C101.504 66.2973 101.311 77.752 99.652 84.8826C98.2828 90.7579 92.9641 93.0288 90.5228 93.7666L89.2175 107.648C89.2116 107.715 89.1945 107.782 89.1668 107.844C88.2448 109.364 86.973 110.643 85.4571 111.573C83.9412 112.502 82.2252 113.057 80.4518 113.189ZM69.3453 75.8089L66.5067 101.937C66.5152 102.099 67.1476 108.347 75.7854 111.421C83.853 114.281 87.8149 108.23 88.2615 107.444L89.5552 93.3396C89.5605 93.2623 89.5847 93.1875 89.6255 93.1216C89.6663 93.0557 89.7226 93.0007 89.7894 92.9614C89.88 92.9024 89.9817 92.8624 90.0882 92.8441C92.2404 92.213 97.3968 90.1437 98.6741 84.6492C100.135 78.3829 100.44 68.6908 100.482 66.5847C90.8073 64.2864 79.9862 62.0257 77.748 58.8804C74.6442 73.3538 70.3815 74.6366 69.3453 75.8089Z" fill="#231F20"/>
<path id="Vector_53" d="M74.3301 75.7001C74.1471 74.3874 73.5409 73.1702 72.6034 72.2332C71.6958 71.3949 70.6493 70.7207 69.5108 70.2406C68.9164 69.9147 68.2574 69.7236 67.5808 69.681C67.1053 69.7106 66.6393 69.8281 66.2065 70.0275C65.1453 70.4283 64.2626 71.1956 63.7179 72.1907C63.369 73.029 63.2317 73.9402 63.3183 74.8441C63.3296 75.8266 63.4697 76.8034 63.7348 77.7495C64.023 78.6929 64.4966 79.5694 65.128 80.3273C65.7593 81.0853 66.5357 81.7096 67.4115 82.1635C68.2873 82.6175 69.245 82.892 70.2283 82.9709C71.2116 83.0499 72.2008 82.9317 73.1378 82.6233" fill="#96865E" fill-opacity="0.99"/>
<path id="Vector_54" d="M71.2498 83.4439C69.486 83.538 67.7413 83.0403 66.2927 82.0298C64.844 81.0194 63.7742 79.554 63.2532 77.8663C62.966 76.883 62.8169 75.8647 62.8101 74.8403C62.7225 73.855 62.8764 72.8632 63.2583 71.9506C63.8486 70.8571 64.8097 70.0102 65.9689 69.5623C66.463 69.3399 66.9933 69.2088 67.5341 69.1754C68.2892 69.2151 69.0259 69.4231 69.6903 69.784C70.8788 70.289 71.9714 70.995 72.92 71.8712C73.9374 72.8887 74.5954 74.2101 74.7943 75.6352C74.8099 75.7687 74.7729 75.903 74.6912 76.0097C74.6096 76.1164 74.4896 76.1871 74.3568 76.207C74.2238 76.22 74.0908 76.1821 73.9847 76.1009C73.8786 76.0196 73.8072 75.9012 73.785 75.7694C73.6222 74.5686 73.0753 73.4527 72.2258 72.5885C71.3581 71.795 70.3582 71.1594 69.2713 70.7106C68.7488 70.413 68.1666 70.2352 67.567 70.1901C67.1566 70.215 66.7548 70.3189 66.3837 70.496C65.4418 70.8418 64.6499 71.5051 64.1443 72.3717C63.8393 73.1385 63.7224 73.9671 63.8034 74.7883C63.8039 75.7273 63.9384 76.6614 64.2029 77.5624C64.4724 78.438 64.9133 79.2513 65.4999 79.955C66.0865 80.6588 66.8071 81.2388 67.6199 81.6615C68.4327 82.0842 69.3214 82.3412 70.2344 82.4173C71.1474 82.4935 72.0664 82.3874 72.938 82.1053C73.0652 82.0643 73.2035 82.0752 73.3227 82.1356C73.4419 82.1959 73.5326 82.3009 73.5749 82.4277C73.595 82.4913 73.6024 82.5584 73.5966 82.6249C73.5908 82.6914 73.5719 82.7562 73.541 82.8154C73.5101 82.8746 73.4678 82.9271 73.4166 82.97C73.3653 83.0128 73.3062 83.0452 73.2424 83.0651C72.5981 83.2799 71.928 83.4073 71.2498 83.4439V83.4439Z" fill="#231F20"/>
<path id="Vector_55" d="M103.389 71.6847L103.72 72.3499C104.879 74.678 103.582 77.4803 101.058 78.1036C98.2006 78.809 95.5649 76.3368 96.0862 73.4404L96.2178 72.7091C96.4479 71.4309 97.3123 70.3575 98.512 69.8601C100.365 69.0921 102.496 69.8893 103.389 71.6847Z" fill="#D7D7D4" fill-opacity="0.4" stroke="black"/>
<path id="Vector_56" d="M90.5984 71.7266L90.8342 72.1859C92.1817 74.8116 90.7154 78.006 87.8458 78.696C84.6337 79.4684 81.6931 76.6724 82.3027 73.4254L82.398 72.918C82.6738 71.4487 83.6801 70.2217 85.067 69.6635C87.1669 68.8183 89.5649 69.7127 90.5984 71.7266Z" fill="#D7D7D4" fill-opacity="0.4" stroke="black"/>
<line id="Line 1" x1="96.4879" y1="73.4278" x2="91.3925" y2="73.2106" stroke="black" stroke-width="0.5"/>
</g>
</g>
<defs>
<clipPath id="clip0_441_2">
<rect width="303" height="258" fill="white"/>
</clipPath>
<clipPath id="clip1_441_2">
<rect width="31" height="24" fill="white" transform="translate(249 71)"/>
</clipPath>
</defs>
</svg>
